<svg id="_3d-printing" data-name="3d-printing" xmlns="http://www.w3.org/2000/svg" width="62" height="62" viewBox="0 0 62 62">
  <path id="Path_487" data-name="Path 487" d="M60.967,374.2H44.433v-5.167A1.033,1.033,0,0,0,43.4,368H18.6a1.033,1.033,0,0,0-1.033,1.033V374.2H1.033A1.033,1.033,0,0,0,0,375.233v6.2a1.033,1.033,0,0,0,1.033,1.033H60.967A1.033,1.033,0,0,0,62,381.433v-6.2A1.033,1.033,0,0,0,60.967,374.2Zm-41.333-4.133H42.367V374.2H19.633Zm40.3,10.333h-49.6v-1.033a1.033,1.033,0,0,0-2.067,0V380.4H6.2v-1.033a1.033,1.033,0,0,0-2.067,0V380.4H2.067v-4.133H59.933Zm0,0" transform="translate(0 -320.467)" fill="#2a2b24"/>
  <path id="Path_488" data-name="Path 488" d="M203.367,80H193.033A1.033,1.033,0,0,0,192,81.033v4.133a1.033,1.033,0,0,0,1.033,1.033h10.333a1.033,1.033,0,0,0,1.033-1.033V81.033A1.033,1.033,0,0,0,203.367,80Zm-1.033,4.133h-8.267V82.067h8.267Zm0,0" transform="translate(-167.2 -69.667)" fill="#2a2b24"/>
  <path id="Path_489" data-name="Path 489" d="M203.367,144H193.033A1.033,1.033,0,0,0,192,145.033v4.133a1.033,1.033,0,0,0,1.033,1.033h10.333a1.033,1.033,0,0,0,1.033-1.033v-4.133A1.033,1.033,0,0,0,203.367,144Zm-1.033,4.133h-8.267v-2.067h8.267Zm0,0" transform="translate(-167.2 -125.4)" fill="#2a2b24"/>
  <path id="Path_490" data-name="Path 490" d="M200.3,6.2H189.967a1.033,1.033,0,0,0-1.033,1.033V12.4h-8.267V5.167A5.173,5.173,0,0,0,175.5,0H165.167A5.173,5.173,0,0,0,160,5.167V27.9a5.173,5.173,0,0,0,5.167,5.167H166.2v3.1a3.1,3.1,0,0,0,3.1,3.1v5.167a1.033,1.033,0,1,0,2.067,0V39.267a3.1,3.1,0,0,0,3.1-3.1v-3.1H175.5a5.173,5.173,0,0,0,5.167-5.167V22.733h17.567a1.033,1.033,0,0,0,1.033-1.033V16.533H200.3a1.033,1.033,0,0,0,1.033-1.033V7.233A1.033,1.033,0,0,0,200.3,6.2Zm-10.333,8.267A1.033,1.033,0,0,0,191,13.433V8.267h8.267v2.067H194.1a1.033,1.033,0,0,0-1.033,1.033v5.167h-12.4V14.467Zm-27.9-6.2H178.6v18.6H162.067Zm3.1-6.2H169.3V3.1a1.033,1.033,0,1,0,2.067,0V2.067h2.067V3.1a1.033,1.033,0,1,0,2.067,0V2.067a3.1,3.1,0,0,1,3.1,3.1V6.2H162.067V5.167A3.1,3.1,0,0,1,165.167,2.067Zm7.233,34.1a1.033,1.033,0,0,1-1.033,1.033H169.3a1.033,1.033,0,0,1-1.033-1.033v-3.1H172.4ZM175.5,31H165.167a3.1,3.1,0,0,1-2.91-2.067H178.41A3.1,3.1,0,0,1,175.5,31Zm23.767-16.533h-1.033A1.033,1.033,0,0,0,197.2,15.5v5.167H180.667V18.6H194.1a1.033,1.033,0,0,0,1.033-1.033V12.4h4.133Zm0,0" transform="translate(-139.333)" fill="#2a2b24"/>
  <path id="Path_491" data-name="Path 491" d="M128,89.651V106.1a1.033,1.033,0,1,0,2.067,0V89.651a1.033,1.033,0,1,0-2.067,0Zm0,0" transform="translate(-111.467 -77.171)" fill="#2a2b24"/>
  <path id="Path_492" data-name="Path 492" d="M96,33.033V47.659a1.033,1.033,0,0,0,2.067,0V33.033a1.033,1.033,0,0,0-2.067,0Zm0,0" transform="translate(-83.6 -27.867)" fill="#2a2b24"/>
</svg>
