<svg xmlns="http://www.w3.org/2000/svg" width="62" height="63.038" viewBox="0 0 62 63.038">
  <g id="adaptation" transform="translate(-1 -0.481)">
    <path id="Path_455" data-name="Path 455" d="M32,23H30v6H28v6h2v6h2V35h2V29H32Zm0,10H30V31h2Z" fill="#2a2b24"/>
    <path id="Path_456" data-name="Path 456" d="M40,23H38v4H36v6h2v8h2V33h2V27H40Zm0,8H38V29h2Z" fill="#2a2b24"/>
    <path id="Path_457" data-name="Path 457" d="M48,23H46V33H44v6h2v2h2V39h2V33H48Zm0,14H46V35h2Z" fill="#2a2b24"/>
    <path id="Path_458" data-name="Path 458" d="M56,23H54v2H52v6h2V41h2V31h2V25H56Zm0,6H54V27h2Z" fill="#2a2b24"/>
    <path id="Path_459" data-name="Path 459" d="M60,19H26a3,3,0,0,0-2.746,1.8,12.045,12.045,0,0,0-6.031-5.018,8,8,0,1,0-8.446,0A12.01,12.01,0,0,0,1,27v9a5.006,5.006,0,0,0,5,5V59a3.983,3.983,0,0,0,7,2.618A3.983,3.983,0,0,0,20,59V41a4.948,4.948,0,0,0,3-1.026V42a3,3,0,0,0,3,3H60a3,3,0,0,0,3-3V22A3,3,0,0,0,60,19ZM14.915,23.781,13,26.333,11.085,23.78l1.693-6.77c.075,0,.147-.01.222-.01s.147.01.222.011ZM7,9a6,6,0,1,1,6,6A6.006,6.006,0,0,1,7,9ZM20,39V25H18V59a2,2,0,0,1-4,0V37H12V59a2,2,0,0,1-4,0V25H6V39a3,3,0,0,1-3-3V27a10.01,10.01,0,0,1,7.646-9.709L8.914,24.219,13,29.667l4.085-5.447-1.732-6.928A10.008,10.008,0,0,1,23,27v9a3,3,0,0,1-3,3Zm41,3a1,1,0,0,1-1,1H26a1,1,0,0,1-1-1V22a1,1,0,0,1,1-1H60a1,1,0,0,1,1,1Z" fill="#2a2b24"/>
    <path id="Path_460" data-name="Path 460" d="M48,17h2V9H48.2L53,3.519,57.8,9H56v4h2V11h4.2L53,.481,43.8,11H48Z" fill="#2a2b24"/>
    <path id="Path_461" data-name="Path 461" d="M56,15h2v2H56Z" fill="#2a2b24"/>
    <path id="Path_462" data-name="Path 462" d="M28,17h2V9H28.2L33,3.519,37.8,9H36v4h2V11h4.2L33,.481,23.8,11H28Z" fill="#2a2b24"/>
    <path id="Path_463" data-name="Path 463" d="M36,15h2v2H36Z" fill="#2a2b24"/>
    <path id="Path_464" data-name="Path 464" d="M58,51H56v4h1.8L53,60.481,48.2,55H50V47H48v6H43.8L53,63.519,62.2,53H58Z" fill="#2a2b24"/>
    <path id="Path_465" data-name="Path 465" d="M56,47h2v2H56Z" fill="#2a2b24"/>
    <path id="Path_466" data-name="Path 466" d="M38,51H36v4h1.8L33,60.481,28.2,55H30V47H28v6H23.8L33,63.519,42.2,53H38Z" fill="#2a2b24"/>
    <path id="Path_467" data-name="Path 467" d="M36,47h2v2H36Z" fill="#2a2b24"/>
  </g>
</svg>
