<svg id="checklist" xmlns="http://www.w3.org/2000/svg" width="43.364" height="43.364" viewBox="0 0 43.364 43.364">
  <path id="Path_353" data-name="Path 353" d="M30.819,22.382a2.09,2.09,0,0,1,1.164.352l4.885,3.257a3.493,3.493,0,0,0,1.94.587h4.557v-1.4H38.808a2.093,2.093,0,0,1-1.165-.352l-1.973-1.316V0H9.093V4.2H0V43.364H26.578v-4.2h9.093V33.284c.044-.011.089-.014.134-.025l3.254-.813a9.1,9.1,0,0,1,2.208-.272h2.1v-1.4h-2.1a10.52,10.52,0,0,0-2.547.314l-3.254.813a9.147,9.147,0,0,1-5.086-.2L29.2,31.313a10.487,10.487,0,0,0-3.322-.539h-6.1a2.1,2.1,0,0,1,2.1-2.1h7.694a2.093,2.093,0,0,0,.246-4.172l.574-2.123Zm-.884,10.652a10.47,10.47,0,0,0,3.322.539c.339,0,.678-.029,1.015-.062v4.259H26.578V35.481a2.523,2.523,0,0,0,.538-1l.573-2.122a9.027,9.027,0,0,1,1.068.278Zm-3.648-.844-.521,1.929a1.155,1.155,0,0,1-1.113.853h-.227a1.153,1.153,0,0,1-1.113-1.453l.363-1.344h2.2C26.015,32.174,26.151,32.184,26.287,32.19Zm-4.06-.016-.264.978a2.535,2.535,0,0,0,1.2,2.87l-.22.877,1.357.339.218-.869h.134a2.54,2.54,0,0,0,.527-.061v5.657H1.4V5.6h9.093V1.4H34.272v21.18L32.759,21.57a3.491,3.491,0,0,0-1.94-.587h-.054l2.911-10.77a2.553,2.553,0,0,0-2.463-3.218h-.227A2.556,2.556,0,0,0,28.522,8.88l-1.944,7.194V4.2H11.89V5.6H25.179V20.983H23.732a3.459,3.459,0,0,0-2.077.7H14.688v1.4h5.5l-1.4,1.4h-4.1v1.4h2.7L16.22,27.047a2.17,2.17,0,0,0,2.168,3.626c0,.034-.011.067-.011.1a1.4,1.4,0,0,0,1.4,1.4Zm5.388-4.9H25L27.953,16.35l2.4.8ZM22.249,23a2.115,2.115,0,0,1,1.484-.614h1.141L24.3,24.493A3.465,3.465,0,0,0,21.959,25.5l-3.642,3.642a.784.784,0,0,1-1.339-.554.779.779,0,0,1,.23-.555Zm.7,3.5a2.108,2.108,0,0,1,.96-.539l-.358,1.323H22.164ZM32.325,9.847l-.857,3.169-2.4-.8.8-2.971a1.156,1.156,0,0,1,1.113-.853h.227a1.153,1.153,0,0,1,1.113,1.454ZM28.7,13.569l2.4.8L30.717,15.8l-2.4-.8Zm.863,12.309a.7.7,0,1,1,0,1.4h-.5l.378-1.4Zm0,0" fill="#fff"/>
  <path id="Path_354" data-name="Path 354" d="M50.185,80H32v6.994H50.185Zm-1.4,5.6H33.4V81.4H48.786Zm0,0" transform="translate(-29.202 -73.006)" fill="#fff"/>
  <path id="Path_355" data-name="Path 355" d="M64,112h1.4v1.4H64Zm0,0" transform="translate(-58.405 -102.208)" fill="#fff"/>
  <path id="Path_356" data-name="Path 356" d="M96,112h1.4v1.4H96Zm0,0" transform="translate(-87.607 -102.208)" fill="#fff"/>
  <path id="Path_357" data-name="Path 357" d="M128,112h1.4v1.4H128Zm0,0" transform="translate(-116.809 -102.208)" fill="#fff"/>
  <path id="Path_358" data-name="Path 358" d="M160,112h1.4v1.4H160Zm0,0" transform="translate(-146.011 -102.208)" fill="#fff"/>
  <path id="Path_359" data-name="Path 359" d="M192,112h1.4v1.4H192Zm0,0" transform="translate(-175.214 -102.208)" fill="#fff"/>
  <path id="Path_360" data-name="Path 360" d="M40.393,212.2h-1.4v2.8H33.4v-5.6h4.2V208H32v8.393h8.393Zm0,0" transform="translate(-29.202 -189.815)" fill="#fff"/>
  <path id="Path_361" data-name="Path 361" d="M66.737,178.344l-6.5,6.5-.9-.9-.989.989,1.893,1.893,7.489-7.489Zm0,0" transform="translate(-53.243 -162.751)" fill="#fff"/>
  <path id="Path_362" data-name="Path 362" d="M38.994,350.994H33.4v-5.6h4.2V344H32v8.393h8.393v-4.2h-1.4Zm0,0" transform="translate(-29.202 -313.925)" fill="#fff"/>
  <path id="Path_363" data-name="Path 363" d="M59.333,319.939l-.989.989,1.893,1.893,7.489-7.489-.989-.989-6.5,6.5Zm0,0" transform="translate(-53.243 -286.861)" fill="#fff"/>
  <path id="Path_364" data-name="Path 364" d="M256,440h1.4v1.4H256Zm0,0" transform="translate(-233.618 -401.532)" fill="#fff"/>
  <path id="Path_365" data-name="Path 365" d="M152,440h7.694v1.4H152Zm0,0" transform="translate(-138.711 -401.532)" fill="#fff"/>
  <path id="Path_366" data-name="Path 366" d="M168,216h9.093v1.4H168Zm0,0" transform="translate(-153.312 -197.116)" fill="#fff"/>
</svg>
