<svg xmlns="http://www.w3.org/2000/svg" width="41.965" height="37.769" viewBox="0 0 41.965 37.769">
  <path id="coins-3" d="M41.957,15.589c-.069-1.2-1.493-2.132-4.339-2.845a1.577,1.577,0,0,0,.15-.655V7.2h-.012C37.506,3.12,20.8,3,18.884,3S.262,3.12.012,7.2H0v.091H0v4.8c0,1.329,1.718,2.369,4.27,3.143a1.534,1.534,0,0,0-.063.355H4.2v.091h0v4.8c-2.749.708-4.122,1.63-4.189,2.807H0v.091H0v4.8c0,.925.836,1.71,2.2,2.364a1.541,1.541,0,0,0-.093.435H2.1v.091h0v4.8C2.1,38.2,7.342,39.643,13.162,40.317a.642.642,0,0,0,.127.026c.013,0,.024-.007.038-.008,1.122.127,2.262.225,3.39.3a.578.578,0,0,0,.069.014c.013,0,.024-.007.036-.008,1.432.087,2.842.131,4.16.131s2.728-.044,4.16-.131c.013,0,.024.008.036.008s.045-.012.069-.014c1.128-.071,2.268-.169,3.39-.3.013,0,.024.007.038.007a.642.642,0,0,0,.127-.026c5.82-.674,11.057-2.119,11.063-4.446V30.977h-.011c-.049-.857-.78-1.573-2.223-2.171a1.564,1.564,0,0,0,.136-.629V23.6c2.511-.772,4.193-1.805,4.2-3.122V15.589ZM36.294,28.4l-.239.209a6.257,6.257,0,0,1-1.784.965V26.243a10.408,10.408,0,0,0,2.1-.962v2.894A.445.445,0,0,1,36.294,28.4Zm-15.643,3.25-.308.006c-.25,0-.506.006-.759.008V28.175l.577-.008.111,0q1.056-.02,2.109-.067v3.492l-.452.021C21.509,31.629,21.084,31.643,20.651,31.654Zm-3.054.01q-.48-.008-.956-.023l-.118,0q-.572-.019-1.135-.047V28.1q1.051.049,2.109.067l.111,0,.577.008v3.5l-.406,0ZM4.964,30.069l-.068-.02V26.67c.653.176,1.355.337,2.1.483v3.414q-.963-.2-1.774-.427C5.135,30.116,5.047,30.093,4.964,30.069Zm14.742,5.792.577.008v3.5q-1.45-.014-2.8-.081V35.792q1.051.049,2.109.067Zm2.664,0q1.056-.02,2.109-.067v3.492q-1.347.066-2.8.081v-3.5l.577-.008Zm5.607-.316v3.473q-1.008.106-2.1.184V35.712C26.588,35.665,27.288,35.609,27.977,35.542Zm1.4-.151q1.082-.13,2.1-.3V38.53q-.988.174-2.1.32Zm3.5-.545c.743-.146,1.445-.307,2.1-.483v3.379c-.623.18-1.325.354-2.1.518Zm-23.78,0V38.26c-.774-.164-1.475-.339-2.1-.518V34.363C7.647,34.539,8.35,34.7,9.092,34.846Zm1.4.25q1.016.165,2.1.3v3.459q-1.109-.146-2.1-.32Zm3.5.446c.688.066,1.389.123,2.1.17V39.2q-1.09-.077-2.1-.184ZM12.253,31.36l-.213-.022-.15-.016V27.849c.688.066,1.389.123,2.1.17V31.5C13.4,31.463,12.82,31.415,12.253,31.36ZM10.491,27.7v3.459q-1.109-.146-2.1-.32V27.4Q9.409,27.567,10.491,27.7Zm13.755,3.774-.466.035V28.019c.709-.047,1.41-.1,2.1-.17v3.473c-.432.045-.874.088-1.328.125Zm3.031-.315V27.7q1.082-.13,2.1-.3v3.434Q28.387,31.011,27.277,31.157Zm3.5-4c.743-.146,1.445-.307,2.1-.483v3.379c-.623.18-1.325.354-2.1.518ZM21.21,23.958c-.526-.013-1.04-.034-1.545-.058l-.081,0V20.4q1.051.049,2.109.067l.111,0,.577.008v3.492c-.341,0-.684,0-1.016-.013ZM4.9,13.963V10.584c.653.176,1.355.337,2.1.483v3.414l-.259-.055c-.372-.082-.735-.167-1.082-.257C5.389,14.1,5.138,14.032,4.9,13.963ZM17.608,12.08l.577.008v3.492c-.941-.009-1.877-.034-2.8-.08V12.012q1.051.049,2.109.067Zm2.664,0q1.056-.02,2.109-.067V15.5c-.119.006-.233.014-.353.02H22c-.469.021-.948.036-1.432.048l-.227,0c-.249,0-.5.006-.756.008V12.089l.577-.008Zm15.938.351-.02,0-.255.2a6.8,6.8,0,0,1-1.664.86V10.156a10.408,10.408,0,0,0,2.1-.962v2.894A.549.549,0,0,1,36.209,12.43Zm-8.932,2.637V11.611q1.082-.13,2.1-.3v3.429C28.712,14.862,28.014,14.97,27.277,15.066Zm3.5-.591V11.067c.743-.146,1.445-.307,2.1-.483v3.371C32.246,14.137,31.54,14.312,30.774,14.475Zm-4.9-2.713v3.469q-1.013.107-2.1.185V11.932C24.489,11.885,25.19,11.829,25.878,11.762ZM11.89,15.233v-3.47c.688.066,1.389.123,2.1.17v3.482C13.276,15.363,12.574,15.3,11.89,15.233Zm-1.4-3.622v3.456c-.138-.018-.283-.033-.42-.052l-.263-.038q-.606-.087-1.187-.185l-.229-.041V11.317Q9.409,11.48,10.491,11.611ZM18.011,23.8l-.283-.021q-.671-.052-1.311-.116l-.274-.028-.056-.006V20.155c.688.066,1.389.123,2.1.17v3.486Zm-4.621-.522c-.277-.044-.537-.092-.8-.138V19.71q1.016.165,2.1.3v3.459c-.428-.057-.847-.115-1.249-.178Zm-2.2-3.818v3.408q-1.159-.249-2.1-.525V18.976C9.746,19.152,10.448,19.314,11.191,19.459Zm-3.5-.911v3.323a4.363,4.363,0,0,1-2.039-1.244l-.047-.078a.442.442,0,0,1-.012-.066v-2.9A10.408,10.408,0,0,0,7.694,18.549Zm16.775,1.923q1.056-.02,2.109-.067v3.489c-.919.045-1.853.071-2.8.08V20.482l.577-.008Zm9.039,2.684c-.307.053-.617.106-.935.154-.183.028-.369.055-.557.081s-.361.047-.541.07V20q1.082-.13,2.1-.3v3.434Zm-4.736.6c-.261.022-.53.036-.795.055V20.325c.709-.047,1.41-.1,2.1-.17v3.47c-.406.043-.812.085-1.23.12Zm7.993-1.311c-.348.1-.717.188-1.093.277-.174.041-.352.081-.534.12l-.166.034V19.46c.743-.146,1.445-.307,2.1-.483v3.379Zm3.794-6.806c-.064.475-1.141,1.106-3.062,1.7h0a46.946,46.946,0,0,1-11.254,1.681c-.251.01-.5.021-.757.029l-.632.019c-.579.013-1.167.022-1.772.022s-1.193-.009-1.772-.022c-.213,0-.422-.012-.632-.019-.257-.008-.507-.019-.757-.029A46.94,46.94,0,0,1,8.665,17.334h0c-1.906-.589-2.98-1.216-3.06-1.688a.164.164,0,0,1,.012-.041c.048.012.1.022.149.034.273.065.554.128.839.188,1.39.3,2.93.545,4.571.732.006,0,.01,0,.015,0h0c1.118.127,2.277.227,3.468.3.009,0,.017,0,.026,0s.008,0,.013,0q1.285.076,2.6.107c.538.013,1.066.02,1.58.02.367,0,.743,0,1.123-.011a53.558,53.558,0,0,0,13.069-1.619c.151-.043.3-.087.444-.131.089-.027.18-.054.266-.081.253-.081.5-.164.73-.251l.12-.046c.2-.075.388-.152.57-.232l.157-.069c.194-.087.381-.177.555-.27.078-.041.146-.084.22-.126s.168-.1.245-.147c.044-.028.1-.055.138-.083C39.653,14.6,40.479,15.345,40.558,15.635ZM18.884,4.4c11.533,0,17.366,1.816,17.475,2.858-.085.473-1.158,1.1-3.059,1.685h0a46.946,46.946,0,0,1-11.254,1.681c-.251.01-.5.021-.757.029l-.632.019c-.579.013-1.167.022-1.772.022s-1.193-.009-1.772-.022c-.213,0-.422-.012-.632-.019-.257-.008-.507-.019-.757-.029A46.94,46.94,0,0,1,4.469,8.942h0c-1.9-.588-2.975-1.212-3.059-1.685C1.518,6.215,7.352,4.4,18.884,4.4ZM1.4,12.09v-2.9a10.408,10.408,0,0,0,2.1.962V13.5C2.137,12.995,1.4,12.483,1.4,12.09Zm3.388,9.679c.01.011.027.021.037.032.957.967,2.94,1.726,5.409,2.293l.174.039q.272.061.551.119a53.941,53.941,0,0,0,7.921,1h.008q1.421.083,2.9.111c.438.009.869.015,1.29.015.483,0,.978-.006,1.481-.017.915-.019,1.816-.057,2.705-.108l.01,0c.006,0,.011,0,.017,0a54.1,54.1,0,0,0,8.074-1.034,12.671,12.671,0,0,1-2.069.809h0a48.264,48.264,0,0,1-12.087,1.713l-.472.015-.52.01c-.44.007-.883.013-1.337.013-.606,0-1.193-.009-1.772-.022-.213,0-.422-.012-.632-.019-.257-.008-.507-.019-.757-.029A46.94,46.94,0,0,1,4.469,25.028h0c-1.923-.595-3-1.227-3.062-1.7C1.484,23.063,2.191,22.405,4.787,21.769ZM1.4,28.176v-2.9a10.408,10.408,0,0,0,2.1.962v3.336l-.4-.155-.008.008C1.991,28.976,1.4,28.529,1.4,28.176ZM3.5,35.87v-2.9a10.408,10.408,0,0,0,2.1.962v3.349C4.235,36.775,3.5,36.263,3.5,35.87ZM36.37,37.285V33.936a10.408,10.408,0,0,0,2.1-.962v2.894C38.467,36.262,37.73,36.774,36.37,37.285Zm2.089-6.254c-.076.474-1.151,1.1-3.061,1.692h0A46.946,46.946,0,0,1,24.144,34.4c-.251.01-.5.021-.757.029l-.632.019c-.579.013-1.167.022-1.772.022s-1.194-.009-1.774-.022c-.211,0-.418-.012-.626-.019-.258-.008-.51-.019-.762-.029A46.946,46.946,0,0,1,6.567,32.722h0c-1.85-.571-2.919-1.179-3.053-1.647.208.073.425.143.646.213l.067.02q.283.087.58.169l.227.062c.112.03.227.059.341.088a51.026,51.026,0,0,0,9.309,1.323h.006c1.084.064,2.191.1,3.31.118.3.006.594.008.884.008.385,0,.78,0,1.179-.012,1.02-.017,2.028-.055,3.012-.113h.006l.009,0c1.2-.072,2.361-.175,3.476-.3l.012,0c.015,0,.028-.008.043-.009,1.242-.143,2.42-.32,3.513-.525.225-.041.447-.084.667-.128l.147-.03a18.793,18.793,0,0,0,5.08-1.653c.067-.036.13-.074.194-.111s.152-.093.224-.141.145-.085.206-.129C38.033,30.414,38.413,30.855,38.459,31.03Zm.009-9.133V18.549a10.408,10.408,0,0,0,2.1-.962v2.894C40.565,20.875,39.828,21.387,38.468,21.9Z" transform="translate(0 -3)" fill="#fff"/>
</svg>
