<svg xmlns="http://www.w3.org/2000/svg" width="34.622" height="34.622" viewBox="0 0 34.622 34.622">
  <path id="collage" d="M34.622,0H8.115V4.057H4.057V8.115H0V21.368a4.045,4.045,0,0,0,1.19,2.868s9.2,9.2,9.2,9.2a4.055,4.055,0,0,0,2.869,1.188H26.508V30.565h4.057V26.508h4.057ZM9.2,29.376,5.246,25.426H9.2Zm15.282,3.217H13.254a2.031,2.031,0,0,1-2.029-2.029V23.4H4.057a2.031,2.031,0,0,1-2.029-2.029V10.143h22.45Zm4.057-4.057H26.508V8.115H6.086V6.086h22.45Zm4.057-4.057H30.565V4.057H10.143V2.029h22.45Zm0,0" fill="#fff"/>
</svg>
