<svg id="consultant" xmlns="http://www.w3.org/2000/svg" width="43.364" height="43.365" viewBox="0 0 43.364 43.365">
  <path id="Path_367" data-name="Path 367" d="M141.739,29.507l-8.756-1.945V26.17a7.728,7.728,0,0,0,2.963-3.643h1.933a2.8,2.8,0,0,0,2.8-2.8v-4.9a2.788,2.788,0,0,0-1.4-2.409V9.366A3.762,3.762,0,0,0,136.984,5.9l-.167-.334a9.777,9.777,0,0,0-18.522,4.373v2.487a2.788,2.788,0,0,0-1.4,2.409v4.9a2.8,2.8,0,0,0,2.8,2.8h1.933a7.728,7.728,0,0,0,2.963,3.643v1.393l-8.756,1.945A4.867,4.867,0,0,0,112,34.287v9.223h33.573V34.287A4.868,4.868,0,0,0,141.739,29.507Zm-8.155-.378-1.039,4.157-2.661-1.773,2.623-2.623Zm-5.623,7.387h1.652l1.119,5.6h-3.889Zm1.678-1.4h-1.706l-.448-1.79,1.3-.866,1.3.867Zm9.639-15.387a1.4,1.4,0,0,1-1.4,1.4h-1.532a7.676,7.676,0,0,0,.134-1.4V13.435h1.4a1.4,1.4,0,0,1,1.4,1.4ZM119.694,9.938a8.378,8.378,0,0,1,15.872-3.747l.419.836.275.092a2.367,2.367,0,0,1,1.619,2.248v2.669h-1.4v-2.1h-1.4v1.651a3.993,3.993,0,0,1-1.677.438,5.387,5.387,0,0,0,.86-1L133.1,10.25a4,4,0,0,1-3.195,1.778,5.426,5.426,0,0,0,.862-1L129.6,10.25a4,4,0,0,1-3.195,1.778,5.425,5.425,0,0,0,.862-1l-1.164-.776a4,4,0,0,1-3.338,1.786h-.276v-2.1h-1.4v2.1h-1.4Zm0,11.191a1.4,1.4,0,0,1-1.4-1.4v-4.9a1.4,1.4,0,0,1,1.4-1.4h1.4V19.73a7.677,7.677,0,0,0,.134,1.4Zm2.8-1.4V13.435h.276a5.406,5.406,0,0,0,2.521-.624v.624h.976a5.405,5.405,0,0,0,2.521-.624v.624h.976a5.406,5.406,0,0,0,2.521-.624v.624h.976a5.384,5.384,0,0,0,1.822-.33V19.73a6.276,6.276,0,0,1-.162,1.4h-3.464a2.1,2.1,0,0,0-1.97-1.4h-1.4a2.1,2.1,0,0,0,0,4.2h1.4a2.1,2.1,0,0,0,1.97-1.4h2.962a6.289,6.289,0,0,1-11.925-2.8Zm7.694,2.1a.7.7,0,0,1-.7.7h-1.4a.7.7,0,1,1,0-1.4h1.4A.7.7,0,0,1,130.185,21.828Zm-1.4,5.6a7.639,7.639,0,0,0,2.8-.534v.944l-2.8,2.8-2.8-2.8v-.944A7.639,7.639,0,0,0,128.786,27.424Zm-3.72,1.465,2.623,2.623-2.661,1.773-1.039-4.157Zm-11.667,5.4a3.476,3.476,0,0,1,2.738-3.414l6.486-1.442,1.529,6.119,2.1-1.4.42,1.683-1.255,6.277h-6.421V34.418h-1.4v7.694h-4.2Zm30.775,7.824h-4.2V34.418h-1.4v7.694h-6.421L130.9,35.834l.42-1.683,2.1,1.4,1.529-6.119,6.486,1.442a3.476,3.476,0,0,1,2.738,3.414Zm0,0" transform="translate(-102.208 -0.146)" fill="#fff"/>
  <path id="Path_368" data-name="Path 368" d="M345.4,168.7a.7.7,0,1,1-.7-.7A.7.7,0,0,1,345.4,168.7Zm0,0" transform="translate(-313.925 -153.312)" fill="#fff"/>
  <path id="Path_369" data-name="Path 369" d="M249.4,168.7a.7.7,0,1,1-.7-.7A.7.7,0,0,1,249.4,168.7Zm0,0" transform="translate(-226.318 -153.312)" fill="#fff"/>
  <path id="Path_370" data-name="Path 370" d="M32,32h6.994v1.4H32Zm0,0" transform="translate(-29.202 -29.202)" fill="#fff"/>
  <path id="Path_371" data-name="Path 371" d="M32,64h6.994v1.4H32Zm0,0" transform="translate(-29.202 -58.405)" fill="#fff"/>
  <path id="Path_372" data-name="Path 372" d="M10.491,12.369V9.792h2.1V0H0V9.792H5.77ZM1.4,1.4h9.792V8.393h-2.1v1.619L6.126,8.393H1.4Zm0,0" fill="#fff"/>
  <path id="Path_373" data-name="Path 373" d="M14.688,142.688H3.4L4.2,141.5V130.1a2.1,2.1,0,1,0-4.2,0v11.4l1.724,2.586H14.688ZM2.1,129.4a.7.7,0,0,1,.7.7v1.4H1.4v-1.4A.7.7,0,0,1,2.1,129.4Zm0,12.727-.7-1.049V132.9H2.8v8.181Zm0,0" transform="translate(0 -116.809)" fill="#fff"/>
  <path id="Path_374" data-name="Path 374" d="M152,264h1.4v1.4H152Zm0,0" transform="translate(-138.711 -240.919)" fill="#fff"/>
  <path id="Path_375" data-name="Path 375" d="M64,264h6.295v1.4H64Zm0,0" transform="translate(-58.405 -240.919)" fill="#fff"/>
  <path id="Path_376" data-name="Path 376" d="M64,232h6.295v1.4H64Zm0,0" transform="translate(-58.405 -211.717)" fill="#fff"/>
  <path id="Path_377" data-name="Path 377" d="M120,200h1.4v1.4H120Zm0,0" transform="translate(-109.509 -182.514)" fill="#fff"/>
  <path id="Path_378" data-name="Path 378" d="M64,200h3.5v1.4H64Zm0,0" transform="translate(-58.405 -182.514)" fill="#fff"/>
</svg>
