<svg id="conveyor-2" xmlns="http://www.w3.org/2000/svg" width="70" height="63" viewBox="0 0 70 63">
  <path id="Path_453" data-name="Path 453" d="M9.8,21.389l36.494,18.8a5.849,5.849,0,0,0,2.672.649H70V38.5H53.018a4.519,4.519,0,0,0,0-4.667H70V31.5H68.833V19.833h-14V31.5h-4.7a3.516,3.516,0,0,1-1.6-.389L39.382,26.4l5.4-10.363L32.369,9.567,26.936,19.989,12.543,12.573a8.12,8.12,0,0,0-1.857-.682c-.062-.02-.122-.042-.186-.058V0H0V2.333H2.333V4.667H4.667V2.333h3.5v9.333H0V14H5.316a4.519,4.519,0,0,0,0,4.667H0V21H8.2A3.514,3.514,0,0,1,9.8,21.389Zm47.367.778h3.5V24.5H63V22.167h3.5V31.5H57.167Zm-23.8-9.45,3.1,1.618L35.391,16.4l2.07,1.079,1.078-2.07,3.1,1.618-4.316,8.276L29.05,20.989ZM44.38,36.576,12.193,19.995A4.643,4.643,0,0,0,14,16.333c0-.139-.029-.269-.041-.406L46.14,32.505a4.643,4.643,0,0,0-1.807,3.661c0,.139.029.269.041.405ZM10.244,14.186a2.352,2.352,0,1,1-1.109-.166A5.88,5.88,0,0,1,10.244,14.186ZM48.776,38.478c-.091-.006-.18-.021-.269-.032A2.326,2.326,0,1,1,49,38.5C48.923,38.5,48.851,38.485,48.776,38.478Zm0,0" fill="#2a2b24"/>
  <path id="Path_454" data-name="Path 454" d="M7,199.667H70v-2.333H68.833v-14H70V181H48.116L7.533,160.129c-.017-.008-.035-.011-.051-.019s-.05-.018-.076-.028A1.155,1.155,0,0,0,7,160H0v2.333H1.167v35H0v2.333Zm1.167-2.333V163.079l14,7.2v27.055Zm16.333,0V171.479l2.333,1.2v24.655Zm24.5-14H61.833v14H49Zm-19.833-9.45L42,180.483v16.85H29.167Zm15.167,23.45V181.721l2.333,1.167v14.445Zm22.167-14v14H64.167v-14Zm-63-21H5.833v35H3.5Zm0,0" transform="translate(0 -136.667)" fill="#2a2b24"/>
</svg>
