<svg xmlns="http://www.w3.org/2000/svg" width="43.318" height="47.372" viewBox="0 0 43.318 47.372">
  <g id="Group_59" data-name="Group 59" transform="translate(0)">
    <path id="Path_81" data-name="Path 81" d="M64.465,9.357H41.239a4.33,4.33,0,0,0-4.193-3.275h-.3L34.369.465a.763.763,0,0,0-1.4,0L30.588,6.082H28.754a.763.763,0,0,0-.763.763V9.356H22.673a.763.763,0,0,0-.763.763V16.2a.763.763,0,0,0,.763.763h5.319V18.7a.763.763,0,0,0,.763.763h1.109V41.793H24.7a.763.763,0,0,0-.763.763V46.61a.763.763,0,0,0,.763.763H35.332a.763.763,0,0,0,0-1.525h-9.87V43.318H41.871v2.529h-4.1a.763.763,0,0,0,0,1.525h4.86a.763.763,0,0,0,.763-.763V42.555a.763.763,0,0,0-.763-.763H37.47V19.459h3.136a.763.763,0,0,0,.763-.763V16.964H59.96v6.919H59.5a.763.763,0,0,0,0,1.525h.458v1.942a.763.763,0,0,0,.763.763,1.382,1.382,0,1,1-1.382,1.381.763.763,0,1,0-1.525,0,2.907,2.907,0,1,0,3.67-2.805V25.408h.458a.763.763,0,1,0,0-1.525h-.458V16.964h2.98a.763.763,0,0,0,.763-.763V10.119A.763.763,0,0,0,64.465,9.357Zm-41.03,6.082V11.961l3.478,3.478Zm4.556-1.079-3.478-3.478h3.478ZM33.667,2.72l1.422,3.362H32.244Zm2.278,39.072H32.467l3.478-3.478Zm-4.556-1.078V32.233l4.24,4.24Zm4.556-6.082-4.24-4.24,4.24-4.24ZM31.388,28.55V20.537l4.007,4.007Zm4.556-5.614-3.478-3.478h3.478Zm3.9-8.486H34.351V12.189a.763.763,0,1,0-1.525,0v3.023a.763.763,0,0,0,.763.763h6.255v1.958H29.517V7.607h3.309V9.7a.763.763,0,1,0,1.525,0V7.607h2.695a2.8,2.8,0,0,1,2.8,2.8V14.45Zm1.525-.091V10.882h3.478Zm1.079,1.079,4.007-4.007,4.006,4.007Zm5.614-4.556h8.481l-4.24,4.24Zm6.082,4.556,4.24-4.24,4.24,4.24ZM63.7,14.36l-3.478-3.478H63.7Z" transform="translate(-21.91)" fill="#fff"/>
  </g>
</svg>
