<svg xmlns="http://www.w3.org/2000/svg" width="76" height="56.406" viewBox="0 0 76 56.406">
  <g id="cutting-map" transform="translate(0 -0.5)">
    <path id="Path_61" data-name="Path 61" d="M55.813,171.081H4.453A1.486,1.486,0,0,1,2.969,169.6V139.547a1.484,1.484,0,0,0-2.969,0V169.6a4.458,4.458,0,0,0,4.453,4.453H55.813a1.484,1.484,0,0,0,0-2.969Zm0,0" transform="translate(0 -117.143)" fill="#e0493f"/>
    <path id="Path_62" data-name="Path 62" d="M71.547.5H4.453A4.458,4.458,0,0,0,0,4.953v5.576a1.484,1.484,0,0,0,2.969,0V4.953A1.486,1.486,0,0,1,4.453,3.469H6.828V4.591a1.484,1.484,0,0,0,2.969,0V3.469h2.974a1.483,1.483,0,0,0,2.958,0h2.979a1.483,1.483,0,0,0,2.958,0h2.974V4.591a1.484,1.484,0,0,0,2.969,0V3.469h2.974a1.483,1.483,0,0,0,2.958,0H36.52a1.483,1.483,0,0,0,2.958,0h2.975V4.591a1.484,1.484,0,0,0,2.969,0V3.469H48.4a1.483,1.483,0,0,0,2.958,0h2.979a1.483,1.483,0,0,0,2.958,0h2.974V4.591a1.484,1.484,0,0,0,2.969,0V3.469h2.974a1.483,1.483,0,0,0,2.958,0h2.38a1.486,1.486,0,0,1,1.484,1.484v47.5a1.486,1.486,0,0,1-1.484,1.484H67.688a1.484,1.484,0,0,0,0,2.969h3.859A4.458,4.458,0,0,0,76,52.453V4.953A4.458,4.458,0,0,0,71.547.5Zm0,0" fill="#e0493f"/>
    <path id="Path_63" data-name="Path 63" d="M106.859,99.987a1.485,1.485,0,0,0,1.484-1.484V59.547a1.485,1.485,0,0,0-1.484-1.484H47.484A1.485,1.485,0,0,0,46,59.547V98.5a1.485,1.485,0,0,0,1.484,1.484ZM99.438,80.509H96.469V77.54h2.969Zm2.969-2.969h2.969v2.969h-2.969ZM93.5,80.509H90.531V77.54H93.5Zm-5.937,0H84.594V77.54h2.969ZM72.719,83.478h2.969v2.969H72.719ZM69.75,86.447H66.781V83.478H69.75Zm5.938-5.937H72.719V77.54h2.969Zm2.969-2.969h2.969v2.969H78.656Zm0,5.938h2.969v2.969H78.656Zm5.938,0h2.969v2.969H84.594Zm0-8.906V71.6h2.969v2.969Zm-2.969,0H78.656V71.6h2.969Zm-5.937,0H72.719V71.6h2.969Zm-5.937,0H66.781V71.6H69.75Zm0,2.969v2.969H66.781V77.54Zm-5.937,2.969H60.844V77.54h2.969Zm-5.938,0H54.906V77.54h2.969Zm-5.937,0H48.969V77.54h2.969Zm0,2.969v2.969H48.969V83.478Zm2.969,0h2.969v2.969H54.906Zm5.938,0h2.969v2.969H60.844Zm2.969,5.938v2.969H60.844V89.415Zm2.969,0H69.75v2.969H66.781Zm5.938,0h2.969v2.969H72.719Zm5.938,0h2.969v2.969H78.656Zm5.938,0h2.969v2.969H84.594Zm5.938,0H93.5v2.969H90.531Zm0-2.969V83.478H93.5v2.969Zm5.938-2.969h2.969v2.969H96.469Zm5.938,0h2.969v2.969h-2.969Zm2.969-8.906h-2.969V71.6h2.969Zm-5.937,0H96.469V71.6h2.969Zm-5.937,0H90.531V71.6H93.5Zm-2.969-5.937V65.665H93.5v2.969Zm-2.969,0H84.594V65.665h2.969Zm-5.937,0H78.656V65.665h2.969Zm-5.937,0H72.719V65.665h2.969Zm-5.937,0H66.781V65.665H69.75Zm-5.937,0H60.844V65.665h2.969Zm0,2.969v2.969H60.844V71.6Zm-5.938,2.969H54.906V71.6h2.969Zm-5.937,0H48.969V71.6h2.969ZM48.969,89.415h2.969v2.969H48.969Zm5.937,0h2.969v2.969H54.906Zm2.969,5.938v1.665H54.906V95.353Zm2.969,0h2.969v1.665H60.844Zm5.938,0H69.75v1.665H66.781Zm5.938,0h2.969v1.665H72.719Zm5.938,0h2.969v1.665H78.656Zm5.938,0h2.969v1.665H84.594Zm5.938,0H93.5v1.665H90.531Zm5.938,0h2.969v1.665H96.469Zm0-2.969V89.415h2.969v2.969Zm5.938-2.969h2.969v2.969h-2.969Zm2.969-20.781h-2.969V65.665h2.969Zm-5.937,0H96.469V65.665h2.969ZM96.469,62.7V61.032h2.969V62.7Zm-2.969,0H90.531V61.032H93.5Zm-5.937,0H84.594V61.032h2.969Zm-5.937,0H78.656V61.032h2.969Zm-5.937,0H72.719V61.032h2.969Zm-5.937,0H66.781V61.032H69.75Zm-5.937,0H60.844V61.032h2.969Zm-5.938,0H54.906V61.032h2.969Zm0,2.969v2.969H54.906V65.665Zm-5.937,2.969H48.969V65.665h2.969ZM48.969,95.353h2.969v1.665H48.969Zm53.438,1.665V95.353h2.969v1.665ZM105.375,62.7h-2.969V61.032h2.969ZM51.937,61.031V62.7H48.969V61.031Zm0,0" transform="translate(-39.172 -49.018)" fill="#e0493f"/>
    <path id="Path_64" data-name="Path 64" d="M407.485,360.5h0a1.484,1.484,0,1,0,1.486,1.484A1.484,1.484,0,0,0,407.484,360.5Zm0,0" transform="translate(-345.734 -306.563)" fill="#e0493f"/>
    <path id="Path_65" data-name="Path 65" d="M1.484,101.035a1.484,1.484,0,0,0,1.484-1.484h0a1.484,1.484,0,1,0-1.484,1.485Zm0,0" transform="translate(0 -83.084)" fill="#e0493f"/>
  </g>
</svg>
