<svg xmlns="http://www.w3.org/2000/svg" width="49.813" height="33.959" viewBox="0 0 49.813 33.959">
  <path id="delivery-truck" d="M40.725,643.34a4.6,4.6,0,0,0-3.246,1.339,4.507,4.507,0,0,0,0,6.451,4.617,4.617,0,0,0,3.246,1.339,4.565,4.565,0,0,0,0-9.129Zm0,7.1a2.536,2.536,0,1,1,0-5.072,2.536,2.536,0,0,1,0,5.072Zm1.177-22.3a.985.985,0,0,0-.68-.264h-5.2A1.017,1.017,0,0,0,35,628.886V637.2a1.017,1.017,0,0,0,1.014,1.014h8.257a1.017,1.017,0,0,0,1.014-1.014v-5.569a1.015,1.015,0,0,0-.335-.751Zm1.359,8.054H37.033v-6.3h3.794l2.434,2.191ZM15.955,643.34a4.6,4.6,0,0,0-3.246,1.339,4.507,4.507,0,0,0,0,6.451,4.617,4.617,0,0,0,3.246,1.339,4.565,4.565,0,0,0,0-9.129Zm0,7.1a2.536,2.536,0,1,1,0-5.072,2.536,2.536,0,0,1,0,5.072ZM9.19,644.588H7.151v-2.7a1.014,1.014,0,0,0-2.029,0V645.6a1.017,1.017,0,0,0,1.014,1.014H9.19a1.014,1.014,0,0,0,0-2.029Zm5.143-5.528a1.017,1.017,0,0,0-1.014-1.014H1.014a1.014,1.014,0,1,0,0,2.029h12.3A1.011,1.011,0,0,0,14.332,639.06ZM3.073,635.4l12.3.071a1.024,1.024,0,0,0,1.024-1,1,1,0,0,0-1-1.024l-12.3-.071h-.01a1.014,1.014,0,0,0-.01,2.029Zm2.069-4.6h12.3a1.014,1.014,0,1,0,0-2.029H5.143a1.014,1.014,0,1,0,0,2.029Zm44.3-1.369h0l-7.262-6.015a1,1,0,0,0-.649-.233H32.986v-3.651a1.017,1.017,0,0,0-1.014-1.014H6.137a1.017,1.017,0,0,0-1.014,1.014v7.425a1.014,1.014,0,1,0,2.029,0v-6.41H30.967v24.049H22.65a1.014,1.014,0,0,0,0,2.029H35.034a1.014,1.014,0,0,0,0-2.029H33V625.2h8.175l6.613,5.477-.071,13.886H46.658a1.014,1.014,0,0,0,0,2.029h2.059a1.009,1.009,0,0,0,1.014-1l.081-15.377A1.071,1.071,0,0,0,49.438,629.424Z" transform="translate(0 -618.51)" fill="#fff"/>
</svg>
