<svg xmlns="http://www.w3.org/2000/svg" width="46" height="46" viewBox="0 0 46 46">
  <path id="Path_525" data-name="Path 525" d="M23,0A23,23,0,1,0,46,23,23,23,0,0,0,23,0ZM17.015,16.155a1.628,1.628,0,0,1,2.3,0l2.039,2.039V9.58a1.629,1.629,0,0,1,3.257,0V18.3l.71-.71,1.439-1.439a1.627,1.627,0,0,1,2.753,1.439h0c-.007.037-.018.072-.027.108a1.507,1.507,0,0,1-.049.166c-.013.037-.029.072-.045.108a1.607,1.607,0,0,1-.087.165c-.017.029-.033.057-.052.085a1.648,1.648,0,0,1-.188.23l-2.318,2.318L24.2,23.318a1.623,1.623,0,0,1-1.151.476h-.024a1.623,1.623,0,0,1-1.151-.476l-2.544-2.544-2.318-2.318a1.6,1.6,0,0,1-.187-.229c-.019-.028-.035-.057-.053-.086a1.707,1.707,0,0,1-.086-.164c-.017-.037-.033-.073-.046-.11a1.687,1.687,0,0,1-.048-.162c-.01-.038-.022-.074-.029-.113A1.618,1.618,0,0,1,17.015,16.155ZM35.508,32.1h0c0,2.2-2.155,3.92-4.907,3.92H15.4c-2.752,0-4.907-1.722-4.907-3.92V21.514c0-1.858,1.542-3.372,3.681-3.8a3.983,3.983,0,0,0,1.155,2.428l.63.63H15.4c-1.114,0-1.726.555-1.726.739V32.1c0,.184.612.739,1.726.739H30.6c1.114,0,1.726-.555,1.726-.739V21.514c0-.184-.612-.739-1.726-.739h-.478l.63-.63a3.98,3.98,0,0,0,1.152-2.411c2.1.447,3.6,1.946,3.6,3.781Z" fill="#ffb512"/>
</svg>
