<svg xmlns="http://www.w3.org/2000/svg" width="70.759" height="75.813" viewBox="0 0 70.759 75.813">
  <g id="earth-globe" transform="translate(-17.067)">
    <g id="Group_220" data-name="Group 220" transform="translate(17.067 0)">
      <g id="Group_219" data-name="Group 219">
        <path id="Path_482" data-name="Path 482" d="M60.582,25.219a1.261,1.261,0,0,0,1.566-.86A30.371,30.371,0,0,1,97.625,3.194a6.6,6.6,0,0,0,1.245,3.866c.14.222.331.526.354.567,0,4.531-.926,5.269-.916,5.272a9,9,0,0,0-6.673,4.189A4.037,4.037,0,0,0,91.81,21.4a30.543,30.543,0,0,1,1.641,2.912c1.074,2.08,2.265,4.387,4.137,4.387a2.868,2.868,0,0,0,1.285-.335c1.473-.737,2.53-2.832,3.551-4.856a16.1,16.1,0,0,1,1.5-2.617c1.282.174,1.909,1.334,2.757,3.172.624,1.352,1.27,2.748,2.538,3.383,2.135,1.068,9.157-.05,13.037-1.7a1.264,1.264,0,0,0,.725-1.492A33.043,33.043,0,0,0,103.712,2.44a1.263,1.263,0,1,0-.958,2.337,30.528,30.528,0,0,1,17.474,19.049c-3.932,1.386-8.979,1.8-9.877,1.36-.475-.238-.953-1.27-1.374-2.181-.881-1.908-2.087-4.521-5.168-4.657-1.592-.1-2.489,1.736-3.643,4.024-.677,1.342-1.7,3.37-2.514,3.771-.469-.11-1.4-1.913-1.956-2.99A32.694,32.694,0,0,0,93.912,20a1.517,1.517,0,0,1-.05-1.718,6.743,6.743,0,0,1,4.445-2.854c2.284,0,3.443-2.623,3.443-7.8a3.626,3.626,0,0,0-.742-1.914,3.851,3.851,0,0,1-.761-3.225A1.264,1.264,0,0,0,99.323.994a32.9,32.9,0,0,0-39.6,22.659A1.262,1.262,0,0,0,60.582,25.219Z" transform="translate(-53.363 0)" fill="#2a2b24"/>
        <path id="Path_483" data-name="Path 483" d="M313.369,222.218c-.365.1-.864.248-1,.258-1.746,0-2.853,1.352-3.66,2.339-.308.377-.865,1.052-1.221,1.063a3.959,3.959,0,0,0-1.784-.43,3.045,3.045,0,0,0-3.068,2.109,2.449,2.449,0,0,0,1.543,2.76,23.592,23.592,0,0,1,5.117,3.03,4.382,4.382,0,0,0,3.083,1.022,5.675,5.675,0,0,0,5.544-3.693,7.087,7.087,0,0,1,2.047-2.689c.963-.924,1.874-1.794,1.886-3.044a2.907,2.907,0,0,0-.97-2.1,4.884,4.884,0,0,0-3.6-1.338A14.581,14.581,0,0,0,313.369,222.218Zm5.964,2.69a5.423,5.423,0,0,1-1.107,1.252,9.282,9.282,0,0,0-2.7,3.716c-.624,1.87-2.732,1.965-3.148,1.965a2.4,2.4,0,0,1-1.3-.28,24.036,24.036,0,0,0-5.776-3.5l-.014-.006a1.41,1.41,0,0,1,1.064.088,2.765,2.765,0,0,0,1.245.308c1.4,0,2.282-1.079,3.06-2.031.57-.694,1.158-1.413,1.706-1.413a6.733,6.733,0,0,0,1.691-.355,12.4,12.4,0,0,1,3.231-.613,2.437,2.437,0,0,1,1.808.6A2.153,2.153,0,0,1,319.333,224.908Z" transform="translate(-260.305 -188.709)" fill="#2a2b24"/>
        <path id="Path_484" data-name="Path 484" d="M116.591,166.189a1.263,1.263,0,1,0-2.5.346,30.774,30.774,0,0,1,.289,4.2,30.359,30.359,0,0,1-29.961,30.323c-4.493-2.869-8.7-6.385-6.828-10.762,3.369-7.863.234-10.793-1.106-12.047l-.251-.239a5.978,5.978,0,0,0-1.2-.87c-.925-.555-1.174-.7-.677-2.194a4.745,4.745,0,0,1,1.27-1.985c1.169-1.236,2.062-2.465,2.062-6.039a4.762,4.762,0,0,0-2.895-4.551,6.3,6.3,0,0,0-6.345.741,2.858,2.858,0,0,0-.848,3.121c.9,2.7-1.157,6.6-5,9.482-1.018.763-1.322.413-1.5.2-1.128-1.3-1.041-5-.115-5.923a1.872,1.872,0,0,0,.493-2.119c-1.023-2.321-7.552-2.142-8.847-2.081a1.265,1.265,0,0,0-1.2,1.108,29.87,29.87,0,0,0-.229,3.831,32.776,32.776,0,0,0,24.946,31.893,1.263,1.263,0,0,0,.605-2.453,30.256,30.256,0,0,1-23.024-29.441c0-.877.03-1.651.1-2.441a18.841,18.841,0,0,1,4.88.528c-1.449,2.263-1.29,6.712.481,8.754,1.27,1.463,3.112,1.524,4.929.16,4.855-3.64,7.164-8.471,5.884-12.3-.04-.125-.081-.243.152-.454a3.831,3.831,0,0,1,3.623-.3,2.224,2.224,0,0,1,1.39,2.24c0,2.852-.575,3.461-1.371,4.3a7.2,7.2,0,0,0-1.832,2.923c-1.136,3.413.686,4.507,1.775,5.16a3.909,3.909,0,0,1,.709.489c.092.092.2.191.312.3,1.112,1.039,3.179,2.973.509,9.2-3.027,7.065,4.779,11.99,8.112,14.094a1.275,1.275,0,0,0,.675.195A32.89,32.89,0,0,0,116.9,170.736,33.251,33.251,0,0,0,116.591,166.189Z" transform="translate(-46.146 -137.883)" fill="#2a2b24"/>
        <path id="Path_485" data-name="Path 485" d="M76.088,242.988A35.383,35.383,0,0,1,19.594,214.6a1.263,1.263,0,0,0-2.527,0A37.946,37.946,0,0,0,53.71,252.472v3.822a1.263,1.263,0,0,0,2.527,0v-3.841A37.533,37.533,0,0,0,77.6,245.015a1.264,1.264,0,0,0-1.51-2.027Z" transform="translate(-17.067 -181.745)" fill="#2a2b24"/>
        <path id="Path_486" data-name="Path 486" d="M254.232,345.745c-1.577,0-3.427,1.814-4.1,3.443a2.864,2.864,0,0,0,.431,3.26,4.568,4.568,0,0,0,6.145,0,3.235,3.235,0,0,0,.576-3.471,7.2,7.2,0,0,0-1.667-2.674A1.943,1.943,0,0,0,254.232,345.745Zm.687,4.915a2.212,2.212,0,0,1-2.565.014,1.535,1.535,0,0,1,.318-.924,4.2,4.2,0,0,1,1.385-1.408,4.644,4.644,0,0,1,.828,1.433C255.026,350.194,255.038,350.543,254.919,350.66Z" transform="translate(-215.359 -294.55)" fill="#2a2b24"/>
      </g>
    </g>
  </g>
</svg>
