<svg xmlns="http://www.w3.org/2000/svg" width="70.749" height="70.748" viewBox="0 0 70.749 70.748">
  <g id="flag-2" transform="translate(0 -0.001)">
    <path id="Path_468" data-name="Path 468" d="M204.917,5.2a1.178,1.178,0,0,0,.3,1.209l2.575,2.51-.607,3.546a1.179,1.179,0,0,0,1.709,1.243l3.184-1.673,3.184,1.673a1.179,1.179,0,0,0,1.711-1.243l-.607-3.546,2.575-2.51a1.18,1.18,0,0,0-.654-2.012l-3.56-.517L213.136.658a1.18,1.18,0,0,0-2.114,0l-1.593,3.225-3.56.517A1.178,1.178,0,0,0,204.917,5.2Zm5.464.925a1.178,1.178,0,0,0,.888-.646l.809-1.638.809,1.638a1.178,1.178,0,0,0,.888.646l1.809.262-1.31,1.275a1.179,1.179,0,0,0-.338,1.043l.309,1.8-1.617-.851a1.178,1.178,0,0,0-1.1,0l-1.619.851.309-1.8a1.181,1.181,0,0,0-.338-1.043l-1.311-1.275Zm0,0" transform="translate(-176.552 0)" fill="#2a2b24"/>
    <path id="Path_469" data-name="Path 469" d="M217.164,417.334a1.178,1.178,0,0,0-.952-.8l-3.56-.517-1.593-3.226a1.227,1.227,0,0,0-2.114,0l-1.591,3.225-3.56.517a1.18,1.18,0,0,0-.654,2.012l2.575,2.511-.607,3.544a1.179,1.179,0,0,0,1.711,1.243L210,424.167l3.184,1.673A1.179,1.179,0,0,0,214.9,424.6l-.607-3.544,2.578-2.5A1.179,1.179,0,0,0,217.164,417.334ZM212.2,419.8a1.18,1.18,0,0,0-.338,1.044l.309,1.8-1.619-.85a1.182,1.182,0,0,0-1.1,0l-1.617.85.309-1.8a1.181,1.181,0,0,0-.338-1.044l-1.31-1.277,1.809-.262a1.178,1.178,0,0,0,.888-.646l.809-1.638.809,1.639a1.18,1.18,0,0,0,.888.645l1.81.262Zm0,0" transform="translate(-174.764 -355.228)" fill="#2a2b24"/>
    <path id="Path_470" data-name="Path 470" d="M72.355,63.971,68.8,63.455,67.2,60.23a1.179,1.179,0,0,0-2.114,0L63.5,63.455l-3.559.516a1.179,1.179,0,0,0-.659,2.012l2.576,2.51-.608,3.546a1.179,1.179,0,0,0,1.709,1.243l3.184-1.673,3.184,1.673a1.179,1.179,0,0,0,1.711-1.243l-.608-3.546L73,65.983a1.18,1.18,0,0,0-.655-2.012Zm-4.009,3.267a1.178,1.178,0,0,0-.338,1.043l.308,1.8-1.617-.85a1.18,1.18,0,0,0-1.1,0l-1.619.851.308-1.8a1.179,1.179,0,0,0-.338-1.043l-1.311-1.276L64.45,65.7a1.178,1.178,0,0,0,.888-.645l.809-1.639.809,1.638a1.18,1.18,0,0,0,.888.646l1.813.262Zm0,0" transform="translate(-50.782 -51.34)" fill="#2a2b24"/>
    <path id="Path_471" data-name="Path 471" d="M361.546,356.2a1.178,1.178,0,0,0-.952-.8l-3.56-.518-1.593-3.225a1.226,1.226,0,0,0-2.114,0l-1.591,3.225-3.56.518a1.179,1.179,0,0,0-.653,2l2.575,2.512-.607,3.544a1.178,1.178,0,0,0,1.162,1.379,1.2,1.2,0,0,0,.549-.134l3.184-1.674,3.184,1.674a1.179,1.179,0,0,0,1.711-1.244l-.607-3.544,2.575-2.512A1.178,1.178,0,0,0,361.546,356.2Zm-4.964,2.465a1.18,1.18,0,0,0-.339,1.042l.309,1.8-1.618-.85a1.178,1.178,0,0,0-1.1,0l-1.617.85.309-1.8a1.18,1.18,0,0,0-.339-1.042l-1.31-1.276,1.809-.263a1.179,1.179,0,0,0,.888-.645l.809-1.639.809,1.639a1.178,1.178,0,0,0,.888.645l1.81.263Zm0,0" transform="translate(-299.2 -302.542)" fill="#2a2b24"/>
    <path id="Path_472" data-name="Path 472" d="M2.8,220.624a1.178,1.178,0,0,0,1.241.09l3.184-1.673,3.184,1.673a1.178,1.178,0,0,0,1.711-1.243l-.607-3.545,2.575-2.512a1.179,1.179,0,0,0-.653-2.012l-3.56-.517-1.591-3.225a1.18,1.18,0,0,0-2.114,0l-1.593,3.225-3.56.517a1.179,1.179,0,0,0-.656,2.018l2.575,2.512-.607,3.545A1.179,1.179,0,0,0,2.8,220.624Zm2.73-7.492a1.179,1.179,0,0,0,.888-.645l.809-1.639.809,1.638a1.18,1.18,0,0,0,.888.647l1.809.261-1.31,1.277a1.181,1.181,0,0,0-.338,1.044l.309,1.8-1.617-.851a1.182,1.182,0,0,0-1.1,0l-1.619.851.309-1.8a1.18,1.18,0,0,0-.338-1.044l-1.31-1.277Zm0,0" transform="translate(0 -178.4)" fill="#2a2b24"/>
    <path id="Path_473" data-name="Path 473" d="M421.9,212.14a1.179,1.179,0,0,0-.952-.8l-3.56-.518-1.591-3.225a1.18,1.18,0,0,0-2.114,0l-1.593,3.225-3.56.518a1.179,1.179,0,0,0-.654,2.012l2.577,2.51-.607,3.546a1.179,1.179,0,0,0,1.711,1.242l3.184-1.674,3.184,1.674a1.179,1.179,0,0,0,1.711-1.242l-.607-3.546,2.575-2.51A1.179,1.179,0,0,0,421.9,212.14Zm-4.964,2.463a1.18,1.18,0,0,0-.338,1.043l.309,1.8-1.617-.851a1.19,1.19,0,0,0-1.1,0l-1.617.851.309-1.8a1.178,1.178,0,0,0-.338-1.044l-1.308-1.275,1.809-.263a1.18,1.18,0,0,0,.888-.645l.809-1.639.809,1.639a1.178,1.178,0,0,0,.888.645l1.809.263Zm0,0" transform="translate(-351.208 -178.342)" fill="#2a2b24"/>
    <path id="Path_474" data-name="Path 474" d="M71.866,355.992a1.18,1.18,0,0,0-.953-.8l-3.558-.514-1.592-3.223a1.179,1.179,0,0,0-2.114,0l-1.594,3.223-3.559.518a1.179,1.179,0,0,0-.654,2.012l2.576,2.51-.609,3.542a1.178,1.178,0,0,0,.963,1.361,1.129,1.129,0,0,0,.2.017,1.17,1.17,0,0,0,.547-.135l3.184-1.674,3.184,1.674a1.179,1.179,0,0,0,1.709-1.243l-.608-3.546,2.577-2.51A1.18,1.18,0,0,0,71.866,355.992ZM66.9,358.455a1.177,1.177,0,0,0-.338,1.043l.308,1.8-1.617-.848a1.18,1.18,0,0,0-1.1,0l-1.619.852.308-1.8a1.18,1.18,0,0,0-.338-1.044L61.2,357.183l1.809-.263a1.178,1.178,0,0,0,.888-.645l.81-1.638.808,1.638a1.178,1.178,0,0,0,.888.645l1.809.263Zm0,0" transform="translate(-49.543 -302.32)" fill="#2a2b24"/>
    <path id="Path_475" data-name="Path 475" d="M354.763,63.586l-1.591,3.224-3.56.518a1.18,1.18,0,0,0-.653,2.011l2.575,2.509-.608,3.546a1.179,1.179,0,0,0,1.712,1.243l3.184-1.674,3.183,1.674a1.18,1.18,0,0,0,1.71-1.243l-.608-3.546,2.575-2.512a1.179,1.179,0,0,0-.655-2l-3.559-.518-1.592-3.229a1.227,1.227,0,0,0-2.114,0Zm4.564,5.732-1.309,1.276a1.18,1.18,0,0,0-.339,1.044l.305,1.8-1.619-.852a1.188,1.188,0,0,0-1.1,0l-1.617.852.309-1.8a1.18,1.18,0,0,0-.338-1.044l-1.31-1.276,1.809-.263a1.18,1.18,0,0,0,.888-.645l.809-1.638.809,1.638a1.178,1.178,0,0,0,.888.645Zm0,0" transform="translate(-300.434 -54.279)" fill="#2a2b24"/>
    <path id="Path_476" data-name="Path 476" d="M188.133,343.69v-2.358h-2.358v1.179H164.55v-1.179h-2.359v2.358a1.18,1.18,0,0,0,1.179,1.179h23.583A1.179,1.179,0,0,0,188.133,343.69Zm0,0" transform="translate(-139.78 -294.166)" fill="#2a2b24"/>
    <path id="Path_477" data-name="Path 477" d="M164.55,138.608v1.179h-1.179a1.179,1.179,0,0,0-1.179,1.179v2.33h2.359v-1.151h21.225v1.179h2.358v-2.358a1.179,1.179,0,0,0-1.179-1.179h-1.179v-1.179a10.612,10.612,0,1,0-21.225,0Zm14.149,1.179h-7.075v-1.179a3.538,3.538,0,0,1,7.075,0v1.179Zm-3.537-9.434a8.264,8.264,0,0,1,8.254,8.254v1.179h-2.358v-1.179a5.9,5.9,0,0,0-11.792,0v1.179h-2.358v-1.179A8.263,8.263,0,0,1,175.163,130.354Zm0,0" transform="translate(-139.78 -110.309)" fill="#2a2b24"/>
    <path id="Path_478" data-name="Path 478" d="M135.134,264.25v-3.537h-2.359v2.358h-2.358v-4.717h4.717V256h-5.9a1.179,1.179,0,0,0-1.179,1.179v7.075a1.179,1.179,0,0,0,1.179,1.179h4.717A1.179,1.179,0,0,0,135.134,264.25Zm0,0" transform="translate(-110.364 -220.622)" fill="#2a2b24"/>
    <path id="Path_479" data-name="Path 479" d="M198.748,265.43a4.661,4.661,0,0,0,4.655-4.657v-.118A4.661,4.661,0,0,0,198.748,256h-1.241a1.179,1.179,0,0,0-1.179,1.179v7.075a1.179,1.179,0,0,0,1.179,1.179Zm-.062-7.075h.062a2.3,2.3,0,0,1,2.3,2.3v.118a2.3,2.3,0,0,1-2.3,2.3h-.062Zm0,0" transform="translate(-169.2 -220.622)" fill="#2a2b24"/>
    <path id="Path_480" data-name="Path 480" d="M270.49,263.071a1.179,1.179,0,0,0,1.179-1.179v-4.717A1.179,1.179,0,0,0,270.49,256h-4.717a1.179,1.179,0,0,0-1.179,1.179v8.254h2.359v-2.358Zm-3.538-4.717h2.359v2.359h-2.359Zm0,0" transform="translate(-228.032 -220.622)" fill="#2a2b24"/>
    <path id="Path_481" data-name="Path 481" d="M338.759,256h-4.717a1.179,1.179,0,0,0-1.179,1.179v8.254h2.358v-2.358h1.251l1.237,2.407,2.1-1.077-.718-1.4a1.162,1.162,0,0,0,.847-1.112v-4.717A1.179,1.179,0,0,0,338.759,256Zm-1.179,4.717h-2.358v-2.359h2.358Zm0,0" transform="translate(-286.868 -220.622)" fill="#2a2b24"/>
  </g>
</svg>
