<svg id="Group_246" data-name="Group 246" xmlns="http://www.w3.org/2000/svg" width="45.687" height="45.688" viewBox="0 0 45.687 45.688">
  <path id="Path_526" data-name="Path 526" d="M22.844,0A22.844,22.844,0,1,0,45.688,22.843,22.844,22.844,0,0,0,22.844,0ZM13.756,31.138a1.578,1.578,0,1,1,1.578-1.578A1.577,1.577,0,0,1,13.756,31.138Zm0-6.716a1.578,1.578,0,1,1,1.578-1.579A1.577,1.577,0,0,1,13.756,24.422Zm0-6.716a1.578,1.578,0,1,1,1.578-1.578A1.577,1.577,0,0,1,13.756,17.705ZM33.512,31.039H18.718a1.58,1.58,0,1,1,0-3.16H33.512a1.58,1.58,0,1,1,0,3.16Zm0-6.665H18.718a1.58,1.58,0,0,1,0-3.16H33.512a1.58,1.58,0,0,1,0,3.16Zm0-6.665H18.718a1.58,1.58,0,0,1,0-3.16H33.512a1.58,1.58,0,0,1,0,3.16Z" transform="translate(-0.001)" fill="#ffb600"/>
</svg>
