<svg xmlns="http://www.w3.org/2000/svg" width="260" height="46.401" viewBox="0 0 260 46.401">
  <g id="Слой_1" data-name="Слой 1" transform="translate(0 0)">
    <path id="Path_1" data-name="Path 1" d="M121.508,14.59H96.558c-1.261,0-3.05.069-3.041,1.667,0,1.875,1.927,1.788,3.3,1.875,4.155.259,8.32.415,12.484.639a11.525,11.525,0,0,1,2.592.32c2.765.8,6.047,1.417,6.212,4.993s-3.084,4.6-5.892,5.184c-9.391,1.952-18.92.95-28.4.933-1.089,0-2.549-.311-2.479-1.8s1.477-1.728,2.592-1.728c5.184-.112,10.194-.1,15.369-.1,1.175,0,6.168.6,6.151-2.35,0-2.4-3.749-1.728-5.935-1.806-4.752-.1-9.5-.112-14.073-1.641-2.272-.76-4.423-1.857-4.32-4.657.069-2.549,2.117-3.637,4.2-4.363a27.317,27.317,0,0,1,8.9-1.443l57.425-.1a3.637,3.637,0,0,1,.432,0c1.728.121,4.225-.1,4.32,1.857.1,2.462-2.7,2.082-4.32,2.212-3.283.259-6.609.078-9.918.1a15.248,15.248,0,0,0-5.918.968c-2.281.959-4.069,2.3-4.06,4.993s1.927,4.138,4.2,4.881a21.417,21.417,0,0,0,6.177,1.218q17.278.173,34.557,0c2.168,0,6.047.328,5.952-1.866-.086-2.713-3.793-2.151-6.134-2.177-4.613-.043-9.209-.138-13.659-1.538-2.272-.708-4.458-1.728-4.6-4.475-.156-3.136,2.367-4.086,4.708-4.8a31.7,31.7,0,0,1,9.365-1.313h85.917a24.19,24.19,0,0,1,6.782,1.114c3.715,1.089,5.97,3.3,5.529,7.542-.173,1.728,0,3.456,0,5.184-.06,2.229.648,4.795-2.194,5.97-3.214,1.33-6.393,1.469-9.5-.406a2.592,2.592,0,0,1-1.166-2.592V24.059c.043-3.24-2.428-3.058-4.492-3.136-3.991-.156-9.883-.6-11.689,2.393-1.158,1.935.821,3.309,3.093,3.456,2.428.138,4.9-.337,7.292.449.864.268,1.788.544,1.9,1.521a1.63,1.63,0,0,1-1.616,1.667c-7.3.864-14.687,1.728-21.425-2.186-3.62-2.134-3.222-6.428.492-8.639a18.143,18.143,0,0,1,9.443-2.5h14.687c.786,0,1.961.276,2.03-.933.052-.916-.864-1.451-1.728-1.607a15.136,15.136,0,0,0-2.592-.2c-10.8,0-21.6.078-32.38-.078-2.885,0-3.844.924-3.611,3.706.2,2.289.069,4.6.069,6.911,0,4.4-1.952,6.177-6.661,6.16s-6.125-1.59-6.177-6.229c-.1-10.453-.1-10.471-10.6-10.445q-9.927,0-19.87.164c-1.253,0-3.041,0-3.136,1.572-.121,1.961,1.84,1.9,3.2,1.987,4.441.294,8.924-.156,13.339.717a30.48,30.48,0,0,1,3.758.864c2.3.778,4.389,2.056,4.268,4.769-.1,2.471-2.16,3.6-4.32,4.32a24.907,24.907,0,0,1-8.034,1.4H135.823a24.043,24.043,0,0,1-8.009-1.572C120.195,26.029,118.441,22.374,121.508,14.59Z" transform="translate(-11.021 -1.381)" fill="#e0493f"/>
    <path id="Path_2" data-name="Path 2" d="M155.126,19.41c2.7.216,5.451-.354,8.121.432.812.242,1.788.484,1.909,1.477s-.786,1.5-1.616,1.659a53.84,53.84,0,0,1-16.613.086A1.751,1.751,0,0,1,145.2,21.44c0-.994.976-1.348,1.806-1.6C149.684,19.056,152.422,19.635,155.126,19.41Z" transform="translate(-19.742 -2.632)" fill="#e0493f"/>
    <path id="Path_3" data-name="Path 3" d="M96.944,43v.76h-2.79v6.2H93.29V43Z" transform="translate(-12.678 -5.843)" fill="#2a2b24"/>
    <path id="Path_4" data-name="Path 4" d="M104.16,46.885V45.252h.864v.864h0a1.961,1.961,0,0,1,1.771-.976,2.261,2.261,0,0,1,2.117,2.54c0,1.8-1.089,2.687-2.263,2.687a1.771,1.771,0,0,1-1.546-.786h0v2.713h-.864Zm.864,1.33a1.624,1.624,0,0,0,0,.371,1.4,1.4,0,0,0,1.365,1.063c.959,0,1.512-.778,1.512-1.927,0-1-.527-1.857-1.486-1.857a1.451,1.451,0,0,0-1.374,1.123,1.728,1.728,0,0,0-.06.371Z" transform="translate(-14.157 -6.134)" fill="#2a2b24"/>
    <path id="Path_5" data-name="Path 5" d="M117.638,45.27l1.1,2.955c.112.328.233.726.32,1.019h0c.1-.294.2-.683.32-1.037l.994-2.937h.959l-1.365,3.568a7.235,7.235,0,0,1-1.728,3.127,2.505,2.505,0,0,1-1.114.587l-.225-.769a2.393,2.393,0,0,0,.795-.441,2.825,2.825,0,0,0,.76-1.011.6.6,0,0,0,.069-.216.735.735,0,0,0-.061-.242l-1.849-4.6Z" transform="translate(-15.851 -6.151)" fill="#2a2b24"/>
    <path id="Path_6" data-name="Path 6" d="M133.742,45.27v5h-.864v-4.32h-2.324v4.32h-.864v-5Z" transform="translate(-17.631 -6.151)" fill="#2a2b24"/>
    <path id="Path_7" data-name="Path 7" d="M146.782,45.27v5h-.864v-4.32h-2.324v4.32h-.864v-5Z" transform="translate(-19.406 -6.151)" fill="#2a2b24"/>
    <path id="Path_8" data-name="Path 8" d="M158.416,50.254l-.078-.631h0a1.875,1.875,0,0,1-1.529.743,1.425,1.425,0,0,1-1.529-1.434c0-1.209,1.08-1.875,3.006-1.857v-.1a1.028,1.028,0,0,0-1.132-1.158,2.531,2.531,0,0,0-1.3.371l-.207-.6a3.11,3.11,0,0,1,1.641-.449c1.529,0,1.9,1.045,1.9,2.048v1.866a7.318,7.318,0,0,0,.078,1.2Zm-.138-2.592c-.985,0-2.117.147-2.117,1.123a.8.8,0,0,0,.864.864,1.235,1.235,0,0,0,1.2-.864.8.8,0,0,0,.052-.285Z" transform="translate(-21.113 -6.134)" fill="#2a2b24"/>
    <path id="Path_9" data-name="Path 9" d="M196.274,45.27v2.168h.216l1.875-2.168h1.106l-2.177,2.263c.8.086,1.3.622,1.685,1.521a10.566,10.566,0,0,0,.536,1.218h-.95a7.157,7.157,0,0,1-.467-1.028,1.616,1.616,0,0,0-1.65-1.175h-.173v2.2h-.864v-5Z" transform="translate(-26.574 -6.151)" fill="#2a2b24"/>
    <path id="Path_10" data-name="Path 10" d="M212.066,47.712a2.436,2.436,0,0,1-2.445,2.652,2.376,2.376,0,0,1-2.393-2.592,2.445,2.445,0,0,1,2.479-2.652,2.367,2.367,0,0,1,2.359,2.592Zm-3.965.052c0,1.089.631,1.918,1.521,1.918s1.521-.812,1.521-1.944c0-.864-.423-1.918-1.5-1.918S208.1,46.813,208.1,47.764Z" transform="translate(-28.181 -6.131)" fill="#2a2b24"/>
    <path id="Path_11" data-name="Path 11" d="M220.741,45.269h1.114l.864,2.523c.121.371.337.976.449,1.374h0c.112-.371.389-1.166.587-1.728l.8-2.177h1.123l.354,5h-.864l-.112-2.384c0-.536-.069-1.184-.086-1.788h0c-.138.458-.268.864-.544,1.624l-.924,2.505h-.665l-.864-2.471c-.156-.475-.371-1.192-.492-1.659h-.043c0,.587-.052,1.253-.078,1.8l-.13,2.367h-.864Z" transform="translate(-29.971 -6.15)" fill="#2a2b24"/>
    <path id="Path_12" data-name="Path 12" d="M239.06,45.27v5H238.2v-4.32h-2.333v4.32H235v-5Z" transform="translate(-31.961 -6.151)" fill="#2a2b24"/>
    <path id="Path_13" data-name="Path 13" d="M250.7,50.254l-.069-.631h0a1.866,1.866,0,0,1-1.529.743,1.417,1.417,0,0,1-1.521-1.434c0-1.209,1.071-1.875,3-1.857v-.1a1.028,1.028,0,0,0-1.132-1.158,2.531,2.531,0,0,0-1.3.371l-.207-.6a3.136,3.136,0,0,1,1.641-.449c1.529,0,1.9,1.045,1.9,2.048v1.866a7.256,7.256,0,0,0,.086,1.2Zm-.13-2.592c-.993,0-2.117.147-2.117,1.123a.8.8,0,0,0,.864.864,1.253,1.253,0,0,0,1.209-.864,1.036,1.036,0,0,0,.052-.285Z" transform="translate(-33.673 -6.134)" fill="#2a2b24"/>
    <path id="Path_14" data-name="Path 14" d="M261.2,45.27v2.013h2.376V45.27h.864v5h-.864V48.009H261.2v2.263h-.864v-5Z" transform="translate(-35.41 -6.151)" fill="#2a2b24"/>
    <path id="Path_15" data-name="Path 15" d="M274.267,45.267v2.108c0,.795,0,1.287-.052,2h0c.3-.6.475-.959.8-1.538l1.564-2.592h1.063v5h-.864v-2.1c0-.864,0-1.244.06-2.048h0c-.32.639-.536,1.045-.821,1.546-.475.778-1.028,1.728-1.564,2.592H273.42V45.267Z" transform="translate(-37.189 -6.149)" fill="#2a2b24"/>
    <path id="Path_16" data-name="Path 16" d="M287.455,44.95v2.108c0,.795,0,1.287-.052,2h0c.3-.6.475-.959.8-1.538l1.564-2.592h1.063v5h-.864v-2.1c0-.864,0-1.244.06-2.048h0a13.935,13.935,0,0,1-.864,1.546c-.475.778-1.019,1.728-1.555,2.592H286.6V44.95Zm.587-2.03a.7.7,0,0,0,.665.786c.415,0,.648-.328.7-.786h.648a1.235,1.235,0,0,1-1.382,1.279,1.2,1.2,0,0,1-1.3-1.279Z" transform="translate(-38.983 -5.832)" fill="#2a2b24"/>
    <path id="Path_17" data-name="Path 17" d="M32.4,16.068,21.643,8.638a.959.959,0,0,1,0-1.59L32.408.146a.942.942,0,0,1,1.037,0L44.2,7.316a.95.95,0,0,1,0,1.581l-10.73,7.179a.95.95,0,0,1-1.071-.009Z" transform="translate(-2.871 0.01)" fill="#e0493f"/>
    <path id="Path_18" data-name="Path 18" d="M11.159,26.688.4,19.224a.959.959,0,0,1,0-1.59l10.73-6.868a.976.976,0,0,1,1.045,0l10.747,7.179a.942.942,0,0,1,0,1.581L12.231,26.7a.95.95,0,0,1-1.071-.009Z" transform="translate(0.019 -1.436)" fill="#e0493f"/>
    <path id="Path_19" data-name="Path 19" d="M53.629,26.688,42.873,19.224a.959.959,0,0,1,0-1.59l10.764-6.868a.976.976,0,0,1,1.045,0l10.747,7.179a.942.942,0,0,1,0,1.581L54.7,26.7A.95.95,0,0,1,53.629,26.688Z" transform="translate(-5.76 -1.436)" fill="#e0493f"/>
    <path id="Path_20" data-name="Path 20" d="M32.4,37.308,21.643,29.835a.95.95,0,0,1,0-1.581l10.739-6.868a.942.942,0,0,1,1.037,0l10.756,7.179a.95.95,0,0,1,0,1.581l-10.7,7.171A.968.968,0,0,1,32.4,37.308Z" transform="translate(-2.871 -2.88)" fill="#2a2b24"/>
    <path id="Path_21" data-name="Path 21" d="M11.164,47.914.408,40.45a.95.95,0,0,1,.035-1.564l10.73-6.911a.942.942,0,0,1,1.045,0l10.747,7.171a.95.95,0,0,1,0,1.59l-10.73,7.2A.95.95,0,0,1,11.164,47.914Z" transform="translate(0.014 -4.321)" fill="#2a2b24"/>
    <path id="Path_22" data-name="Path 22" d="M53.635,47.914,42.879,40.45a.95.95,0,0,1,.052-1.564l10.713-6.911a.942.942,0,0,1,1.045,0l10.747,7.171a.95.95,0,0,1,0,1.59l-10.73,7.2a.95.95,0,0,1-1.071-.017Z" transform="translate(-5.766 -4.321)" fill="#2a2b24"/>
  </g>
</svg>
