<svg xmlns="http://www.w3.org/2000/svg" width="72.03" height="77.67" viewBox="0 0 72.03 77.67">
  <g id="maintenance" transform="translate(-0.273)">
    <path id="Path_496" data-name="Path 496" d="M71.164,29.829l-6.682-.644a28.477,28.477,0,0,0-3.393-8.059l4.259-5.141a1.268,1.268,0,0,0-.079-1.707L58.042,7.051a1.269,1.269,0,0,0-1.707-.079l-5.145,4.26a29.291,29.291,0,0,0-8.055-3.394l-.645-6.691A1.269,1.269,0,0,0,41.227,0H31.35a1.269,1.269,0,0,0-1.263,1.147l-.645,6.691a29.272,29.272,0,0,0-8.055,3.394L16.242,6.97a1.269,1.269,0,0,0-1.707.079L7.308,14.278a1.269,1.269,0,0,0-.079,1.707l4.258,5.141a28.465,28.465,0,0,0-3.4,8.06l-6.678.645a1.263,1.263,0,0,0-1.14,1.263V41.339A1.262,1.262,0,0,0,1.413,42.6l6.686.645A29.273,29.273,0,0,0,11.49,51.3L7.228,56.446a1.27,1.27,0,0,0,.136,1.761l5.482,4.848a1.269,1.269,0,0,0,1.882-.225l7.878-11.3a1.27,1.27,0,0,0-.144-1.624,19.356,19.356,0,1,1,27.374,0,1.269,1.269,0,0,0-.132,1.64l8.155,11.3a1.269,1.269,0,0,0,1.87.208l5.484-4.846a1.27,1.27,0,0,0,.136-1.761L61.088,51.3a29.27,29.27,0,0,0,3.393-8.055l6.682-.645a1.262,1.262,0,0,0,1.14-1.263V31.092A1.262,1.262,0,0,0,71.164,29.829Zm-1.4,10.357-6.437.621a1.264,1.264,0,0,0-1.114.989,26.768,26.768,0,0,1-3.754,8.911,1.269,1.269,0,0,0,.085,1.5l4.066,4.908-3.512,3.1-6.719-9.314a21.895,21.895,0,1,0-32.448.013L13.46,60.21l-3.494-3.09,4.065-4.908a1.27,1.27,0,0,0,.084-1.505,26.794,26.794,0,0,1-3.757-8.91,1.26,1.26,0,0,0-1.109-.989l-6.437-.621v-7.94l6.437-.622a1.264,1.264,0,0,0,1.115-1,25.984,25.984,0,0,1,3.75-8.9,1.27,1.27,0,0,0-.082-1.511L9.92,15.256l5.593-5.593,4.965,4.111a1.267,1.267,0,0,0,1.5.084,26.779,26.779,0,0,1,8.91-3.756,1.269,1.269,0,0,0,.989-1.117L32.5,2.539h7.572L40.7,8.985a1.269,1.269,0,0,0,.989,1.117A26.778,26.778,0,0,1,50.6,13.859a1.267,1.267,0,0,0,1.5-.084l4.964-4.111,5.593,5.593-4.111,4.965a1.27,1.27,0,0,0-.081,1.51,25.99,25.99,0,0,1,3.751,8.9,1.259,1.259,0,0,0,1.111,1l6.438.621Zm0,0" transform="translate(0)" fill="#2a2b24"/>
    <path id="Path_497" data-name="Path 497" d="M175.846,167.91V148.637a10.587,10.587,0,0,0,5.3-8.969,9.32,9.32,0,0,0-7.555-9.621,1.269,1.269,0,0,0-1.55,1.336l.42,5.386a3.644,3.644,0,0,1-3.384,0l.451-5.416a1.269,1.269,0,0,0-1.618-1.324,10.255,10.255,0,0,0-.932,19.1v19.2a10.5,10.5,0,0,0-5.255,8.934,9.462,9.462,0,0,0,7.462,9.688,1.272,1.272,0,0,0,1.577-1.329l-.418-5.386a3.646,3.646,0,0,1,3.384,0l-.451,5.417a1.269,1.269,0,0,0,1.618,1.324,10.22,10.22,0,0,0,.952-19.067Zm.136,15.842.338-4.059a1.269,1.269,0,0,0-.5-1.115l-.048-.037a6.185,6.185,0,0,0-7.543.05,1.27,1.27,0,0,0-.479,1.1l.324,4.175a6.945,6.945,0,0,1-3.81-6.609,7.963,7.963,0,0,1,4.524-7.005,1.262,1.262,0,0,0,.723-1.15V148.234a1.263,1.263,0,0,0-.895-1.215,7.274,7.274,0,0,1-5.191-7.278,7.359,7.359,0,0,1,3.389-6.487l-.337,4.059a1.268,1.268,0,0,0,.5,1.116l.047.036a6.182,6.182,0,0,0,7.536-.043l.034-.027a1.271,1.271,0,0,0,.453-1.074l-.328-4.22a6.8,6.8,0,0,1,3.886,6.569,8.121,8.121,0,0,1-4.574,7.057,1.269,1.269,0,0,0-.724,1.147v20.936a1.269,1.269,0,0,0,.9,1.215,7.274,7.274,0,0,1,5.2,7.267,7.419,7.419,0,0,1-3.425,6.462Zm0,0" transform="translate(-135.131 -109.358)" fill="#2a2b24"/>
  </g>
</svg>
