<svg xmlns="http://www.w3.org/2000/svg" width="45.492" height="44.068" viewBox="0 0 45.492 44.068">
  <g id="metal" transform="translate(0 -1.002)">
    <path id="Path_426" data-name="Path 426" d="M.711,45.07H44.781a.71.71,0,0,0,.711-.711V41.516a.71.71,0,0,0-.711-.711H42.649V35.118h2.132a.71.71,0,0,0,.711-.711V31.564a.71.71,0,0,0-.711-.711H42.168L27.479,20.388a5.8,5.8,0,0,0,.248-1.636A5.614,5.614,0,0,0,26.344,15l.525-2.625H27a.713.713,0,0,0,.569-.284L29.7,9.245a.714.714,0,0,0,.141-.426V1.713A.71.71,0,0,0,29.134,1h-12.8a.71.71,0,0,0-.711.711V8.818a.714.714,0,0,0,.141.426L17.9,12.091a.711.711,0,0,0,.569.284h.023v1.531a.7.7,0,0,0,.2.527l2.813,2.814a1.4,1.4,0,0,1-.308,2.236.7.7,0,0,0-.119-.415.711.711,0,0,0-.992-.166l-.548.391c-.014-.013-.031-.022-.044-.036l-1.872-1.87a.711.711,0,0,0-1.2.378,5.69,5.69,0,0,0,.458,3.421L3.316,30.853H.711A.71.71,0,0,0,0,31.564v2.843a.71.71,0,0,0,.711.711H2.844V40.8H.711A.71.71,0,0,0,0,41.516v2.843a.71.71,0,0,0,.711.711ZM17.048,8.581V2.424H28.423V8.581l-1.776,2.372H18.825Zm5.465,11.683a2.842,2.842,0,0,0,0-4.021l-2.6-2.6V12.376h5.5l-.54,2.7c0,.023,0,.045,0,.068a.749.749,0,0,0,.026.274.71.71,0,0,0,.131.243.605.605,0,0,0,.038.057,4.2,4.2,0,0,1,1.23,3.028,4.317,4.317,0,0,1-1.268,3.039,4.264,4.264,0,0,1-6.032,0c-.07-.07-.127-.149-.192-.222l.847-.6A2.837,2.837,0,0,0,22.514,20.264Zm-4.67-.65.52.52-.295.21A4.222,4.222,0,0,1,17.844,19.614Zm-.2,2.775c.112.135.225.272.351.4a5.692,5.692,0,0,0,8.042,0,5.778,5.778,0,0,0,.841-1.078l12.836,9.145H5.765ZM1.422,32.275H44.071V33.7H1.422Zm2.844,2.843H41.227V40.8H4.266ZM1.422,42.226H44.071v1.422H1.422Z" fill="#fff"/>
    <path id="Path_427" data-name="Path 427" d="M34.225,52h-8.53a.711.711,0,0,0,0,1.422h8.53a.711.711,0,0,0,0-1.422Z" transform="translate(-7.225 -14.747)" fill="#fff"/>
  </g>
</svg>
