<svg xmlns="http://www.w3.org/2000/svg" width="44.531" height="43.046" viewBox="0 0 44.531 43.046">
  <g id="money-2" transform="translate(0 0)">
    <g id="Group_168" data-name="Group 168" transform="translate(0 14.138)">
      <g id="Group_167" data-name="Group 167" transform="translate(0)">
        <path id="Path_411" data-name="Path 411" d="M37.837,160.017H.638a.637.637,0,0,0-.638.636H0V178.51a.637.637,0,0,0,.636.638h25.3a.638.638,0,0,0,0-1.275H1.275v-16.58H37.2v1.594a.637.637,0,0,0,.636.638h0a.637.637,0,0,0,.638-.636h0v-2.232A.637.637,0,0,0,37.837,160.017Z" transform="translate(0 -160.017)" fill="#fff"/>
      </g>
    </g>
    <g id="Group_170" data-name="Group 170" transform="translate(1.487 4.467)">
      <g id="Group_169" data-name="Group 169">
        <path id="Path_412" data-name="Path 412" d="M48.019,62.73l-29.758-6.7a.638.638,0,0,0-.763.484l-1.488,6.7a.638.638,0,0,0,1.245.277L18.6,57.419,47.74,63.974a.6.6,0,0,0,.141.016.638.638,0,0,0,.139-1.26Z" transform="translate(-15.995 -56.019)" fill="#fff"/>
      </g>
    </g>
    <g id="Group_172" data-name="Group 172" transform="translate(9.66)">
      <g id="Group_171" data-name="Group 171">
        <path id="Path_413" data-name="Path 413" d="M124.113,15.471l-17.855-7.44a.64.64,0,0,0-.818.3l-1.488,2.976a.64.64,0,1,0,1.126.609q.01-.018.019-.037h0l1.221-2.443,17.3,7.21a.639.639,0,1,0,.493-1.18Z" transform="translate(-103.875 -7.982)" fill="#fff"/>
      </g>
    </g>
    <g id="Group_174" data-name="Group 174" transform="translate(23.807 17.114)">
      <g id="Group_173" data-name="Group 173">
        <path id="Path_414" data-name="Path 414" d="M262.542,192.017h-5.9a.638.638,0,1,0,0,1.275h5.9a.638.638,0,0,0,0-1.275Z" transform="translate(-256 -192.017)" fill="#fff"/>
      </g>
    </g>
    <g id="Group_176" data-name="Group 176" transform="translate(11.946 17.157)">
      <g id="Group_175" data-name="Group 175">
        <path id="Path_415" data-name="Path 415" d="M135,192.473a6.547,6.547,0,1,0,6.547,6.547A6.547,6.547,0,0,0,135,192.473Zm0,11.9a5.357,5.357,0,1,1,5.357-5.357A5.356,5.356,0,0,1,135,204.376Z" transform="translate(-128.456 -192.473)" fill="#fff"/>
      </g>
    </g>
    <g id="Group_178" data-name="Group 178" transform="translate(28.164 19.24)">
      <g id="Group_177" data-name="Group 177">
        <path id="Path_416" data-name="Path 416" d="M311.04,214.873c-3.943,0-8.184.931-8.184,2.976V235.7c0,2.044,4.241,2.976,8.184,2.976s8.184-.931,8.184-2.976V217.849C319.223,215.8,314.983,214.873,311.04,214.873Zm6.7,20.82c-.112.413-2.343,1.5-6.7,1.5s-6.583-1.086-6.7-1.488v-1.17a19.746,19.746,0,0,0,13.391,0Zm0-2.976c-.112.413-2.343,1.5-6.7,1.5s-6.583-1.086-6.7-1.488v-1.17a19.746,19.746,0,0,0,13.391,0Zm0-2.976c-.112.413-2.343,1.5-6.7,1.5s-6.583-1.086-6.7-1.488v-1.169a19.746,19.746,0,0,0,13.391,0Zm0-2.976c-.112.413-2.343,1.5-6.7,1.5s-6.583-1.086-6.7-1.488v-1.17a19.746,19.746,0,0,0,13.391,0Zm0-2.976c-.112.413-2.343,1.5-6.7,1.5s-6.583-1.086-6.7-1.488v-1.17a19.746,19.746,0,0,0,13.391,0Zm0-2.976c-.112.413-2.343,1.5-6.7,1.5s-6.583-1.086-6.7-1.488v-1.17a19.746,19.746,0,0,0,13.391,0Zm-6.7-1.477c-4.345,0-6.576-1.083-6.7-1.475v0c.12-.414,2.35-1.5,6.7-1.5,4.315,0,6.547,1.067,6.7,1.488C317.586,218.27,315.355,219.337,311.04,219.337Z" transform="translate(-302.856 -214.873)" fill="#fff"/>
      </g>
    </g>
    <g id="Group_180" data-name="Group 180" transform="translate(2.975 17.114)">
      <g id="Group_179" data-name="Group 179">
        <path id="Path_417" data-name="Path 417" d="M41.558,203.92H35.934L33.268,201v-4.836l2.945-2.875h5.345a.638.638,0,0,0,0-1.275h-5.6a.638.638,0,0,0-.446.181l-3.323,3.241a.8.8,0,0,0-.192.521v5.291a.638.638,0,0,0,.167.43l3.023,3.306a.637.637,0,0,0,.471.208h5.906a.638.638,0,0,0,0-1.275Z" transform="translate(-31.992 -192.017)" fill="#fff"/>
      </g>
    </g>
    <g id="Group_182" data-name="Group 182" transform="translate(16.261 20.356)">
      <g id="Group_181" data-name="Group 181">
        <path id="Path_418" data-name="Path 418" d="M177.46,229.477h-.744c-.231,0-.372-.129-.372-.186s.141-.186.372-.186h1.86a.744.744,0,1,0,0-1.488h-.744a.744.744,0,0,0-1.488,0v.033a1.732,1.732,0,0,0-1.488,1.637,1.777,1.777,0,0,0,1.86,1.678h.744c.231,0,.372.129.372.186s-.141.186-.372.186H175.6a.744.744,0,0,0,0,1.488h.744a.744.744,0,1,0,1.488,0v-.033a1.732,1.732,0,0,0,1.488-1.637A1.777,1.777,0,0,0,177.46,229.477Z" transform="translate(-174.856 -226.873)" fill="#fff"/>
      </g>
    </g>
  </g>
</svg>
