<svg id="package-2" xmlns="http://www.w3.org/2000/svg" width="44.763" height="44.763" viewBox="0 0 44.763 44.763">
  <g id="Group_144" data-name="Group 144" transform="translate(12.764 32.348)">
    <g id="Group_143" data-name="Group 143">
      <path id="Path_379" data-name="Path 379" d="M146.873,370a.874.874,0,1,0,.874.874A.875.875,0,0,0,146.873,370Z" transform="translate(-145.999 -370.002)" fill="#fff"/>
    </g>
  </g>
  <g id="Group_146" data-name="Group 146" transform="translate(0 0)">
    <g id="Group_145" data-name="Group 145">
      <path id="Path_380" data-name="Path 380" d="M39.355,16.613l5.152-5.152a.874.874,0,0,0-.36-1.454L31.6,6.135a8.744,8.744,0,0,0-16.455-.658L.614,10.008a.874.874,0,0,0-.358,1.453l5.288,5.288L2.208,22.307a.874.874,0,0,0,.473,1.279L7.518,25.2V38.645a.874.874,0,0,0,.567.819c2.957,1.109,13.946,5.23,14,5.251a.871.871,0,0,0,.559.008l.008,0,15.737-5.246a.874.874,0,0,0,.6-.829V24.839l5.158-1.621a.874.874,0,0,0,.356-1.452ZM32,8.745c0-.222-.009-.444-.026-.665l10.272,3.171-4.362,4.362-7.128-2.376A8.768,8.768,0,0,0,32,8.745ZM16.639,6.469A6.994,6.994,0,0,1,30.25,8.745a6.993,6.993,0,0,1-6.994,6.994,7,7,0,0,1-6.616-9.27ZM2.514,11.247l12.091-3.77a8.815,8.815,0,0,0-.093,1.268,8.69,8.69,0,0,0,.969,4l-8.6,2.867ZM4.268,22.272l2.764-4.608,14.038,4.679-2.764,4.608ZM21.507,42.629l-12.24-4.59V25.781c9.63,3.193,9.16,3.1,9.428,3.1a.875.875,0,0,0,.75-.425l2.062-3.437Zm.874-21.692L9.409,16.613l7.064-2.354a8.74,8.74,0,0,0,13.173.452l5.708,1.9ZM37.244,38.015,23.255,42.678V24.351l3.1,3.874a.875.875,0,0,0,.945.288l9.944-3.125Zm-9.9-11.35-3.5-4.374,14.035-4.678,4.368,4.368Z" transform="translate(0 -0.002)" fill="#fff"/>
    </g>
  </g>
  <g id="Group_148" data-name="Group 148" transform="translate(16.066 33.504)">
    <g id="Group_147" data-name="Group 147">
      <path id="Path_381" data-name="Path 381" d="M186.883,384l-1.944-.729a.874.874,0,1,0-.614,1.637l1.944.729a.874.874,0,1,0,.614-1.637Z" transform="translate(-183.757 -383.219)" fill="#fff"/>
    </g>
  </g>
  <g id="Group_150" data-name="Group 150" transform="translate(12.764 36.001)">
    <g id="Group_149" data-name="Group 149">
      <path id="Path_382" data-name="Path 382" d="M152.423,413.8l-5.246-1.967a.874.874,0,1,0-.614,1.637l5.246,1.967a.874.874,0,0,0,.614-1.637Z" transform="translate(-145.995 -411.779)" fill="#fff"/>
    </g>
  </g>
  <g id="Group_152" data-name="Group 152" transform="translate(19.759 5.246)">
    <g id="Group_151" data-name="Group 151">
      <path id="Path_383" data-name="Path 383" d="M234.485,60.257a.874.874,0,0,0-1.236,0l-4.628,4.628-1.13-1.13a.874.874,0,1,0-1.236,1.236L228,66.739a.874.874,0,0,0,1.237,0l5.246-5.246A.874.874,0,0,0,234.485,60.257Z" transform="translate(-225.998 -60.001)" fill="#fff"/>
    </g>
  </g>
</svg>
