<svg xmlns="http://www.w3.org/2000/svg" width="38.132" height="43.999" viewBox="0 0 38.132 43.999">
  <g id="parquet" transform="translate(-33.134 1)">
    <g id="Group_218" data-name="Group 218" transform="translate(33.134 -1)">
      <g id="Group_217" data-name="Group 217" transform="translate(0 0)">
        <path id="Path_428" data-name="Path 428" d="M178.933,357.4a.733.733,0,1,0,.733.733A.693.693,0,0,0,178.933,357.4Z" transform="translate(-165.734 -326.601)" fill="#fff"/>
        <path id="Path_429" data-name="Path 429" d="M144.8,357.4a.733.733,0,1,0,.733.733A.693.693,0,0,0,144.8,357.4Z" transform="translate(-134.534 -326.601)" fill="#fff"/>
        <path id="Path_430" data-name="Path 430" d="M144.8,307.668a.733.733,0,1,0,0-1.467.789.789,0,0,0-.733.733A.693.693,0,0,0,144.8,307.668Z" transform="translate(-134.534 -279.802)" fill="#fff"/>
        <path id="Path_431" data-name="Path 431" d="M178.933,307.668a.733.733,0,0,0,0-1.467.735.735,0,0,0-.733.733A.693.693,0,0,0,178.933,307.668Z" transform="translate(-165.734 -279.802)" fill="#fff"/>
        <path id="Path_432" data-name="Path 432" d="M434.933,265a.733.733,0,1,0-.733-.733A.693.693,0,0,0,434.933,265Z" transform="translate(-399.734 -240.801)" fill="#fff"/>
        <path id="Path_433" data-name="Path 433" d="M400.8,265a.733.733,0,1,0-.733-.733A.693.693,0,0,0,400.8,265Z" transform="translate(-368.535 -240.801)" fill="#fff"/>
        <path id="Path_434" data-name="Path 434" d="M400.8,213.8a.733.733,0,0,0,0-1.467.789.789,0,0,0-.733.733A.693.693,0,0,0,400.8,213.8Z" transform="translate(-368.535 -194.001)" fill="#fff"/>
        <path id="Path_435" data-name="Path 435" d="M434.933,213.8a.733.733,0,0,0,0-1.467.789.789,0,0,0-.733.733A.693.693,0,0,0,434.933,213.8Z" transform="translate(-399.734 -194.001)" fill="#fff"/>
        <path id="Path_436" data-name="Path 436" d="M70.533-1H33.867a.693.693,0,0,0-.733.733V42.265a.693.693,0,0,0,.733.733H70.533a.693.693,0,0,0,.733-.733V-.267A.693.693,0,0,0,70.533-1ZM69.8,19.533H63.933V.467H69.8ZM55.133,12.2H49.267V.467h5.867Zm-7.333.733V27.6H41.934V.467H47.8ZM34.6.467h5.867V41.532H34.6Zm7.333,28.6H47.8V41.532H41.934Zm7.333-.733V13.666h5.867V41.532H49.267Zm7.333-15.4V.467h5.867V41.532H56.6Zm13.2,28.6H63.933V21H69.8Z" transform="translate(-33.134 1)" fill="#fff"/>
        <path id="Path_437" data-name="Path 437" d="M264.267,178.2a.733.733,0,1,0,.733.733A.693.693,0,0,0,264.267,178.2Z" transform="translate(-243.735 -162.8)" fill="#fff"/>
        <path id="Path_438" data-name="Path 438" d="M230.133,178.2a.733.733,0,1,0,.733.733A.693.693,0,0,0,230.133,178.2Z" transform="translate(-212.534 -162.8)" fill="#fff"/>
        <path id="Path_439" data-name="Path 439" d="M230.133,128.467a.733.733,0,0,0,0-1.467.735.735,0,0,0-.733.733A.693.693,0,0,0,230.133,128.467Z" transform="translate(-212.534 -116)" fill="#fff"/>
        <path id="Path_440" data-name="Path 440" d="M264.267,128.467a.733.733,0,0,0,0-1.467.735.735,0,0,0-.733.733A.693.693,0,0,0,264.267,128.467Z" transform="translate(-243.735 -116)" fill="#fff"/>
        <path id="Path_441" data-name="Path 441" d="M93.6,24.6a.733.733,0,0,0,0,1.467.733.733,0,1,0,0-1.467Z" transform="translate(-87.734 -22.4)" fill="#fff"/>
        <path id="Path_442" data-name="Path 442" d="M59.467,24.6a.733.733,0,1,0,0,1.467.733.733,0,0,0,0-1.467Z" transform="translate(-56.534 -22.4)" fill="#fff"/>
        <path id="Path_443" data-name="Path 443" d="M93.6,468.333a.733.733,0,1,0,.733.733A.693.693,0,0,0,93.6,468.333Z" transform="translate(-87.734 -428.001)" fill="#fff"/>
        <path id="Path_444" data-name="Path 444" d="M59.467,468.333a.733.733,0,1,0,.733.733A.693.693,0,0,0,59.467,468.333Z" transform="translate(-56.534 -428.001)" fill="#fff"/>
        <path id="Path_445" data-name="Path 445" d="M349.6,24.6a.733.733,0,1,0,.733.733A.693.693,0,0,0,349.6,24.6Z" transform="translate(-321.735 -22.4)" fill="#fff"/>
        <path id="Path_446" data-name="Path 446" d="M315.467,24.6a.733.733,0,1,0,.733.733A.693.693,0,0,0,315.467,24.6Z" transform="translate(-290.535 -22.4)" fill="#fff"/>
        <path id="Path_447" data-name="Path 447" d="M349.6,468.333a.733.733,0,1,0,.733.733A.693.693,0,0,0,349.6,468.333Z" transform="translate(-321.735 -428.001)" fill="#fff"/>
        <path id="Path_448" data-name="Path 448" d="M315.467,468.333a.733.733,0,1,0,.733.733A.693.693,0,0,0,315.467,468.333Z" transform="translate(-290.535 -428.001)" fill="#fff"/>
      </g>
    </g>
  </g>
</svg>
