<svg xmlns="http://www.w3.org/2000/svg" width="41.965" height="41.557" viewBox="0 0 41.965 41.557">
  <g id="pay" transform="translate(0 0)">
    <g id="Group_154" data-name="Group 154" transform="translate(0 27.018)">
      <g id="Group_153" data-name="Group 153">
        <path id="Path_405" data-name="Path 405" d="M35.1,317.123l-2.347-2.389a.692.692,0,0,0-.9-.076l-10.226,7.533L18,320.488l3.178-.353a.692.692,0,0,0,.609-.692v-2.991a.692.692,0,0,0-.692-.692H17.635l-5.83-.6a.693.693,0,0,0-.346.055l-3.974,1.7H0v1.385H7.63a.693.693,0,0,0,.277-.055l3.94-1.724,5.684.582h2.9v1.717l-2.562.319-3.718-.395a.694.694,0,0,0-.367,1.316l7.678,3.531a.692.692,0,0,0,.692-.069l10.067-7.395,1.385,1.44-11.57,10.109H18.9L7.858,323.576a.693.693,0,0,0-.242-.048H0v1.385H7.5l11.036,4.113a.69.69,0,0,0,.242.042h3.517a.692.692,0,0,0,.457-.173l12.31-10.76.034-.032A.692.692,0,0,0,35.1,317.123Z" transform="translate(0 -314.527)" fill="#fff"/>
      </g>
    </g>
    <g id="Group_156" data-name="Group 156" transform="translate(21.075 8.534)">
      <g id="Group_155" data-name="Group 155">
        <path id="Path_406" data-name="Path 406" d="M259.369,109.747l-3.656-3.8a.692.692,0,0,0-.443-.215l-7.478-.692H244.94l.138-2.077,2.707-.547,3.78.845a.694.694,0,0,0,.235,0l3.677-.436-.166-1.385-3.559.381-3.808-.845a.567.567,0,0,0-.284,0l-3.372.692a.692.692,0,0,0-.561.637l-.222,3.372c0,.014,0,.028,0,.043a.692.692,0,0,0,.694.691h3.531l7.159.651,3.683,3.857a.693.693,0,0,0,.5.215h4.9v-1.385Z" transform="translate(-243.506 -100.956)" fill="#fff"/>
      </g>
    </g>
    <g id="Group_158" data-name="Group 158" transform="translate(15.516)">
      <g id="Group_157" data-name="Group 157">
        <path id="Path_407" data-name="Path 407" d="M199.5,5.264a.616.616,0,0,0-.263-.125l-11.77-2.769a.692.692,0,0,0-.568.132L179.28,8.04l.817,1.122,7.36-5.352L198.77,6.468l6.114,4.757.845-1.115Z" transform="translate(-179.28 -2.355)" fill="#fff"/>
      </g>
    </g>
    <g id="Group_160" data-name="Group 160" transform="translate(19.767 4.184)">
      <g id="Group_159" data-name="Group 159">
        <path id="Path_408" data-name="Path 408" d="M233.122,50.762a.692.692,0,0,0-.568,0L228.4,52.84l.623,1.232L232.9,52.14l3.171,1.295.512-1.288Z" transform="translate(-228.4 -50.701)" fill="#fff"/>
      </g>
    </g>
    <g id="Group_162" data-name="Group 162" transform="translate(13.847 9.016)">
      <g id="Group_161" data-name="Group 161">
        <path id="Path_409" data-name="Path 409" d="M163.483,109.426l-1.219-.18c-.554-.083-.879-.3-.879-.644s.485-.692,1.135-.658h.5c.651,0,1.136.346,1.136.658v.187h1.385V108.6a2.3,2.3,0,0,0-2.52-2.077h-.5A2.3,2.3,0,0,0,160,108.6a2.216,2.216,0,0,0,2.077,1.98l1.2.18c.554.083.879.332.879.644s-.485.658-1.136.658h-.5c-.651,0-1.135-.346-1.135-.658v-.187H160v.187a2.314,2.314,0,0,0,2.52,2.043h.5a2.33,2.33,0,0,0,2.541-2.008A2.216,2.216,0,0,0,163.483,109.426Z" transform="translate(-160 -106.525)" fill="#fff"/>
      </g>
    </g>
    <g id="Group_164" data-name="Group 164" transform="translate(9.693 5.554)">
      <g id="Group_163" data-name="Group 163">
        <path id="Path_410" data-name="Path 410" d="M124.415,74.176a5.539,5.539,0,1,1-.457-3.046l1.253-.582a6.906,6.906,0,1,0,.589,3.815Z" transform="translate(-112.001 -66.525)" fill="#fff"/>
      </g>
    </g>
    <g id="Group_166" data-name="Group 166" transform="translate(15.925 8.324)">
      <g id="Group_165" data-name="Group 165">
        <rect id="Rectangle_154" data-name="Rectangle 154" width="1.385" height="1.385" fill="#fff"/>
      </g>
    </g>
  </g>
</svg>
