<svg id="presentation" xmlns="http://www.w3.org/2000/svg" width="40.445" height="40.445" viewBox="0 0 40.445 40.445">
  <g id="presentation-training-teaching-meeting-discussion_1_" transform="translate(0)">
    <path id="Path_390" data-name="Path 390" d="M10,15.792A3.792,3.792,0,1,0,13.792,12,3.8,3.8,0,0,0,10,15.792Zm6.319,0a2.528,2.528,0,1,1-2.528-2.528A2.53,2.53,0,0,1,16.319,15.792Z" transform="translate(-3.681 -4.417)" fill="#fff"/>
    <path id="Path_391" data-name="Path 391" d="M19.405,24.4l4.424-4.424a.631.631,0,0,0,0-.894l-1.9-1.9a.632.632,0,0,0-.858-.033l-4.35,3.728L12.51,22.688H5.056a.629.629,0,0,0-.475.216L.157,27.959a.63.63,0,0,0-.124.616l1.9,5.688a.633.633,0,0,0,.882.365l2.528-1.264a.624.624,0,0,0,.349-.554V43.542a3.163,3.163,0,0,0,3.16,3.16H13.9a.632.632,0,0,0,.632-.632V26.87l4.706-2.353A.608.608,0,0,0,19.405,24.4ZM5.688,32.786a.6.6,0,0,0-.045-.222L4.515,29.746l1.172-1.465Zm7.933-6.872a.633.633,0,0,0-.349.566V45.438H10.743V35.326a.632.632,0,0,0-1.264,0V45.438H8.847a1.9,1.9,0,0,1-1.9-1.9V26.479a.632.632,0,0,0-1.126-.395L3.3,29.244a.633.633,0,0,0-.094.629l1.048,2.62L2.9,33.172,1.346,28.519l4-4.568h7.3a.625.625,0,0,0,.249-.051L17.312,22a.636.636,0,0,0,.162-.1l3.979-3.41,1.035,1.034-3.9,3.9Z" transform="translate(0 -6.257)" fill="#fff"/>
    <path id="Path_392" data-name="Path 392" d="M14,31.264h.632v5.056H15.9V31.264h.632V30H14Z" transform="translate(-5.153 -11.042)" fill="#fff"/>
    <path id="Path_393" data-name="Path 393" d="M52.222,47.792A3.79,3.79,0,0,0,45.271,45.7a3.787,3.787,0,0,0-6.319,0A3.79,3.79,0,1,0,33.7,50.951a3.789,3.789,0,0,0-1.7,3.16v2.528h1.264V54.111a2.528,2.528,0,0,1,5.056,0v2.528h1.264V54.111a2.528,2.528,0,0,1,5.056,0v2.528H45.9V54.111a2.528,2.528,0,0,1,5.056,0v2.528h1.264V54.111a3.791,3.791,0,0,0-1.7-3.16A3.791,3.791,0,0,0,52.222,47.792ZM42.111,45.264a2.528,2.528,0,1,1-2.528,2.528A2.53,2.53,0,0,1,42.111,45.264Zm-8.847,2.528a2.528,2.528,0,1,1,2.528,2.528A2.53,2.53,0,0,1,33.264,47.792Zm5.688,4.228a3.819,3.819,0,0,0-1.068-1.068,3.819,3.819,0,0,0,1.068-1.068,3.819,3.819,0,0,0,1.068,1.068A3.819,3.819,0,0,0,38.951,52.019Zm6.319,0A3.819,3.819,0,0,0,44.2,50.951a3.819,3.819,0,0,0,1.068-1.068,3.819,3.819,0,0,0,1.068,1.068A3.819,3.819,0,0,0,45.271,52.019Zm3.16-1.7a2.528,2.528,0,1,1,2.528-2.528A2.53,2.53,0,0,1,48.431,50.319Z" transform="translate(-11.778 -16.194)" fill="#fff"/>
    <path id="Path_394" data-name="Path 394" d="M49.014,0H25.632A.632.632,0,0,0,25,.632V12.639h1.264V1.264H48.382V18.326a1.9,1.9,0,0,1-1.9,1.9H26.9v1.264h19.59a3.163,3.163,0,0,0,3.16-3.16V.632A.632.632,0,0,0,49.014,0Z" transform="translate(-9.201)" fill="#fff"/>
    <path id="Path_395" data-name="Path 395" d="M37.951,5H31.632A.632.632,0,0,0,31,5.632V8.16a.632.632,0,0,0,.632.632h6.319a.632.632,0,0,0,.632-.632V7.528h1.9V8.16a.632.632,0,0,0,.632.632h2.528v1.9H41.111a.632.632,0,0,0-.632.632v2.528a.632.632,0,0,0,.632.632h2.528v1.9H41.111a.632.632,0,0,0-.632.632v2.528a.632.632,0,0,0,.632.632h6.319a.632.632,0,0,0,.632-.632V17.007a.632.632,0,0,0-.632-.632H44.9v-1.9h2.528a.632.632,0,0,0,.632-.632V11.319a.632.632,0,0,0-.632-.632H44.9v-1.9h2.528a.632.632,0,0,0,.632-.632V5.632A.632.632,0,0,0,47.431,5H41.111a.632.632,0,0,0-.632.632v.632h-1.9V5.632A.632.632,0,0,0,37.951,5Zm-.632,2.528H32.264V6.264h5.056ZM46.8,18.9H41.743V17.639H46.8Zm0-5.688H41.743V11.951H46.8ZM41.743,6.264H46.8V7.528H41.743Z" transform="translate(-11.41 -1.84)" fill="#fff"/>
    <rect id="Rectangle_149" data-name="Rectangle 149" width="6.951" height="1.264" transform="translate(20.222 8.215)" fill="#fff"/>
    <rect id="Rectangle_150" data-name="Rectangle 150" width="2.528" height="1.264" transform="translate(24.646 10.743)" fill="#fff"/>
    <rect id="Rectangle_151" data-name="Rectangle 151" width="1.896" height="1.264" transform="translate(25.278 13.271)" fill="#fff"/>
    <rect id="Rectangle_152" data-name="Rectangle 152" width="3.792" height="1.264" transform="translate(23.382 15.799)" fill="#fff"/>
    <path id="Path_396" data-name="Path 396" d="M2.9,6.319h.316L4.918,8.594a.633.633,0,0,0,.506.253.634.634,0,0,0,.632-.632v-1.9H9.847a1.9,1.9,0,0,0,1.9-1.9V1.9A1.9,1.9,0,0,0,9.847,0H2.9A1.9,1.9,0,0,0,1,1.9V4.424A1.9,1.9,0,0,0,2.9,6.319ZM2.264,1.9A.633.633,0,0,1,2.9,1.264H9.847a.633.633,0,0,1,.632.632V4.424a.633.633,0,0,1-.632.632H5.424a.632.632,0,0,0-.632.632v.632L4.033,5.308a.632.632,0,0,0-.506-.253H2.9a.633.633,0,0,1-.632-.632Z" transform="translate(-0.368)" fill="#fff"/>
    <rect id="Rectangle_153" data-name="Rectangle 153" width="5.688" height="1.264" transform="translate(3.16 2.528)" fill="#fff"/>
  </g>
</svg>
