<svg xmlns="http://www.w3.org/2000/svg" width="46" height="46.357" viewBox="0 0 46 46.357">
  <g id="question" transform="translate(0 -0.003)">
    <path id="Path_527" data-name="Path 527" d="M46,23.182A23,23,0,1,0,23,46.36,23.089,23.089,0,0,0,46,23.182Z" transform="translate(0 0)" fill="#ffb600"/>
    <path id="Path_528" data-name="Path 528" d="M138.216,90.361a7.51,7.51,0,0,1,1.243-3.967,9.609,9.609,0,0,1,3.626-3.328,11.3,11.3,0,0,1,5.561-1.319,11.763,11.763,0,0,1,5.215,1.1,8.487,8.487,0,0,1,3.494,3,7.416,7.416,0,0,1,1.232,4.122,6.432,6.432,0,0,1-.7,3.071,9.392,9.392,0,0,1-1.671,2.277q-.968.958-3.473,3.225a14.2,14.2,0,0,0-1.11,1.123,4.555,4.555,0,0,0-.621.886,4.352,4.352,0,0,0-.316.8q-.112.4-.336,1.412a2.276,2.276,0,0,1-2.424,2.143,2.462,2.462,0,0,1-1.783-.7,2.77,2.77,0,0,1-.723-2.081,7.741,7.741,0,0,1,.53-3,7.615,7.615,0,0,1,1.406-2.226,32.364,32.364,0,0,1,2.363-2.277q1.3-1.154,1.884-1.741a5.9,5.9,0,0,0,.978-1.309,3.193,3.193,0,0,0,.4-1.566,3.662,3.662,0,0,0-1.212-2.782,4.4,4.4,0,0,0-3.127-1.133,4.3,4.3,0,0,0-3.3,1.144,9.151,9.151,0,0,0-1.793,3.369q-.693,2.329-2.628,2.329A2.568,2.568,0,0,1,139,92.123,2.5,2.5,0,0,1,138.216,90.361Zm9.941,22.586a3.185,3.185,0,0,1-2.17-.814,2.87,2.87,0,0,1-.927-2.277,2.95,2.95,0,0,1,.9-2.184,3.009,3.009,0,0,1,2.2-.886,2.918,2.918,0,0,1,2.159.886,2.987,2.987,0,0,1,.876,2.184,2.893,2.893,0,0,1-.917,2.267A3.074,3.074,0,0,1,148.157,112.947Z" transform="translate(-125.402 -74.165)" fill="#fff"/>
  </g>
</svg>
