<svg xmlns="http://www.w3.org/2000/svg" width="43.811" height="39.429" viewBox="0 0 43.811 39.429">
  <path id="suitcase" d="M41.62,6.572H32.128V3.651A3.655,3.655,0,0,0,28.477,0H15.334a3.655,3.655,0,0,0-3.651,3.651V6.572H2.191A2.191,2.191,0,0,0,0,8.762V25.016a2.2,2.2,0,0,0,1.46,2.061V37.239a2.191,2.191,0,0,0,2.191,2.191H40.16a2.191,2.191,0,0,0,2.191-2.191V27.078a2.2,2.2,0,0,0,1.46-2.062V8.762A2.191,2.191,0,0,0,41.62,6.572ZM13.143,3.651A2.191,2.191,0,0,1,15.334,1.46H28.477a2.191,2.191,0,0,1,2.191,2.191V6.572h-1.46V3.651a.73.73,0,0,0-.73-.73H15.334a.73.73,0,0,0-.73.73V6.572h-1.46Zm14.6,2.921H16.064V4.381H27.747ZM40.89,37.239a.73.73,0,0,1-.73.73H3.651a.73.73,0,0,1-.73-.73V27.328l16.064,2.215V31.4a2.191,2.191,0,0,0,2.191,2.191h1.46A2.191,2.191,0,0,0,24.826,31.4V29.544L40.89,27.328ZM23.366,31.4a.73.73,0,0,1-.73.73h-1.46a.73.73,0,0,1-.73-.73V27.016a.73.73,0,0,1,.73-.73h1.46a.73.73,0,0,1,.73.73ZM42.35,25.016a.73.73,0,0,1-.628.724l-.2.028-16.694,2.3V27.016a2.191,2.191,0,0,0-2.191-2.191h-1.46a2.191,2.191,0,0,0-2.191,2.191v1.053l-16.9-2.33a.73.73,0,0,1-.629-.724V8.762a.73.73,0,0,1,.73-.73H41.62a.73.73,0,0,1,.73.73Zm0,0" transform="translate(0)" fill="#fff"/>
</svg>
