<svg xmlns="http://www.w3.org/2000/svg" width="61.423" height="68.366" viewBox="0 0 61.423 68.366">
  <g id="support-2" transform="translate(-26)">
    <g id="Group_222" data-name="Group 222" transform="translate(70.064 52.877)">
      <g id="Group_221" data-name="Group 221">
        <path id="Path_493" data-name="Path 493" d="M357.335,396a1.335,1.335,0,1,0,1.335,1.335A1.336,1.336,0,0,0,357.335,396Z" transform="translate(-356 -396)" fill="#2a2b24"/>
      </g>
    </g>
    <g id="Group_224" data-name="Group 224" transform="translate(26)">
      <g id="Group_223" data-name="Group 223">
        <path id="Path_494" data-name="Path 494" d="M74.687,48.559l-6.347-2.115-2.278-4.557a14.625,14.625,0,0,0,3.958-7.737l.284-1.7h2.43a4.01,4.01,0,0,0,4.006-4.006V20.029a20.029,20.029,0,0,0-40.058,0v8.412a4.012,4.012,0,0,0,2.671,3.776v1.565a4.01,4.01,0,0,0,4.006,4.006h1.173a14.486,14.486,0,0,0,2.24,3.468c.189.217.386.428.588.633l-2.277,4.554-6.347,2.115C31.356,51.02,26,58.788,26,67.031a1.335,1.335,0,0,0,1.335,1.335H86.088a1.335,1.335,0,0,0,1.335-1.335C87.423,58.788,82.067,51.02,74.687,48.559ZM74.07,28.441a1.337,1.337,0,0,1-1.335,1.335H70.7c.339-2.629.566-5.427.657-8.183,0-.078,0-.153.007-.23H74.07ZM40.688,29.777a1.337,1.337,0,0,1-1.335-1.335V21.364h2.71q.007.209.014.42s0,.009,0,.014h0c.093,2.68.317,5.405.648,7.977H40.688Zm2.671,5.341a1.337,1.337,0,0,1-1.335-1.335V32.447h1.095l.284,1.7c.054.324.121.646.2.967ZM42.026,18.694H39.4a17.359,17.359,0,0,1,34.616,0H71.4A13.524,13.524,0,0,0,57.907,5.341h-2.39A13.524,13.524,0,0,0,42.026,18.694ZM55.516,8.012h2.39A10.858,10.858,0,0,1,68.729,18.882c0,.42,0,.786-.01,1.119,0,0,0,.009,0,.013l-1.67-.239a21.456,21.456,0,0,1-12.063-6.032,1.336,1.336,0,0,0-.944-.391,12.08,12.08,0,0,0-9.288,4.394A10.854,10.854,0,0,1,55.516,8.012ZM46.368,35.118a76.323,76.323,0,0,1-1.6-12.959l1.8-2.4a9.4,9.4,0,0,1,6.95-3.724,24.152,24.152,0,0,0,13.157,6.381l1.966.281c-.131,2.789-.4,5.587-.785,8.161v0c-.122.827-.219,1.36-.465,2.847a11.342,11.342,0,0,1-8.05,9.122,10.506,10.506,0,0,1-11.794-5.044h2.722a4.012,4.012,0,0,0,3.776,2.671h2.671a4.006,4.006,0,1,0,0-8.012H54.041a4.008,4.008,0,0,0-3.778,2.671Zm7.56,10.417a13.393,13.393,0,0,0,4.966.112l-2.359,2.5Zm.771,4.548-4.235,4.479a50.875,50.875,0,0,1-2.99-6.932l1.59-3.181ZM64.131,44l1.817,3.633a50.862,50.862,0,0,1-2.99,6.935l-4.533-4.533ZM52.706,36.453a1.336,1.336,0,0,1,1.335-1.335h2.671a1.335,1.335,0,1,1,0,2.671H54.041A1.337,1.337,0,0,1,52.706,36.453ZM28.724,65.7c.529-6.615,4.931-12.627,10.856-14.6L45.2,49.22A53.528,53.528,0,0,0,49,57.464l.007.013h0a53.542,53.542,0,0,0,3.655,5.581L54.307,65.7Zm27.987-1.19L54.9,61.6q-.03-.049-.065-.095a50.912,50.912,0,0,1-3.009-4.495l4.762-5.036,5.018,5.018A50.855,50.855,0,0,1,58.587,61.5C58.522,61.59,58.615,61.453,56.711,64.505Zm2.4,1.19,1.643-2.637a53.524,53.524,0,0,0,3.681-5.626l.02-.036,0,0a53.483,53.483,0,0,0,3.761-8.174l5.621,1.873C79.767,53.068,84.17,59.081,84.7,65.7H59.116Z" transform="translate(-26)" fill="#2a2b24"/>
      </g>
    </g>
    <g id="Group_226" data-name="Group 226" transform="translate(74.756 55.426)">
      <g id="Group_225" data-name="Group 225">
        <path id="Path_495" data-name="Path 495" d="M397.069,419.955a13.35,13.35,0,0,0-3.78-4.589,1.335,1.335,0,1,0-1.628,2.117,10.663,10.663,0,0,1,3.019,3.666,1.335,1.335,0,0,0,2.389-1.193Z" transform="translate(-391.139 -415.088)" fill="#2a2b24"/>
      </g>
    </g>
  </g>
</svg>
