<svg id="warranty" xmlns="http://www.w3.org/2000/svg" width="43.364" height="43.426" viewBox="0 0 43.364 43.426">
  <path id="Path_397" data-name="Path 397" d="M43.017,23.78a4.9,4.9,0,0,1-4.9-4.9v-.7H31.126V0H7.756L.352,7.4V40.567h28.22a16.867,16.867,0,0,0,4.378,2.741l.276.118.276-.118A16.835,16.835,0,0,0,43.716,27.816V23.78ZM2.739,6.994,7.346,2.388V6.994Zm1.809,1.4h4.2V4.2H26.93v6.994H4.548Zm-2.8,0h1.4v4.2H28.329V2.8H8.745V1.4H29.728V18.185h-1.4v.7a4.9,4.9,0,0,1-4.9,4.9h-.7v4.035a16.831,16.831,0,0,0,4.4,11.352H1.75ZM42.317,27.816A15.439,15.439,0,0,1,33.225,41.9a15.438,15.438,0,0,1-9.093-14.086V25.141a6.305,6.305,0,0,0,5.556-5.556H36.76a6.305,6.305,0,0,0,5.556,5.556v2.675Zm0,0" transform="translate(-0.352)" fill="#fff"/>
  <path id="Path_398" data-name="Path 398" d="M328.259,273.664l1.828-4.266-1.285-.551-1.764,4.116a4.915,4.915,0,1,0,1.221.7Zm-3.011,7.349a3.5,3.5,0,1,1,0-6.994,3.461,3.461,0,0,1,1.236.237l-1.548,3.611-1.4-.932-.776,1.164,2.8,1.865,2.122-4.951a3.491,3.491,0,0,1-2.433,6Zm0,0" transform="translate(-292.374 -245.343)" fill="#fff"/>
  <path id="Path_399" data-name="Path 399" d="M32.352,300.59H50.537V288H32.352Zm1.4-11.191H49.138v9.792H33.75Zm0,0" transform="translate(-29.554 -262.821)" fill="#fff"/>
  <path id="Path_400" data-name="Path 400" d="M64.352,160H79.739v1.4H64.352Zm0,0" transform="translate(-58.756 -146.011)" fill="#fff"/>
  <path id="Path_401" data-name="Path 401" d="M32.352,160h1.4v1.4h-1.4Zm0,0" transform="translate(-29.554 -146.011)" fill="#fff"/>
  <path id="Path_402" data-name="Path 402" d="M32.352,192H50.537v1.4H32.352Zm0,0" transform="translate(-29.554 -175.214)" fill="#fff"/>
  <path id="Path_403" data-name="Path 403" d="M32.352,224H50.537v1.4H32.352Zm0,0" transform="translate(-29.554 -204.416)" fill="#fff"/>
  <path id="Path_404" data-name="Path 404" d="M32.352,256H50.537v1.4H32.352Zm0,0" transform="translate(-29.554 -233.618)" fill="#fff"/>
</svg>
