<svg height="44" viewBox="0 0 40 44" width="40" xmlns="http://www.w3.org/2000/svg"><g fill="none"><g stroke="#fff" stroke-width="2"><g><circle cx="20" cy="19" r="19" stroke="none"/><circle cx="20" cy="19" fill="none" r="18"/></g><g><circle cx="20" cy="19" r="10" stroke="none"/><circle cx="20" cy="19" fill="none" r="9"/></g><g><path d="m0 38h40v6h-40z" stroke="none"/><path d="m1 39h38v4h-38z" fill="none"/></g></g><g transform="translate(31.771 33.072)"><path d="m2.906 0h3.077v6.3h-5.983v-3.721z"/><path d="m3.66574049 1.99999857-1.6657455 1.47844529v.81951499h1.9830699v-2.29796028zm-.75954556-2h3.0768702v6.29796028h-5.98307038v-3.71854019z" fill="#fff"/></g><g transform="translate(2.575 33.072)"><path d="m3.077 0h-3.077v6.3h5.983v-3.721z"/><path d="m1.99999499 2.00000286v2.29794026h1.9830699v-.81950474l-1.66573524-1.47843552zm-2.00000024-2h3.07688022l2.90619016 2.57941008v3.71853018h-5.98307038z" fill="#fff"/></g><path d="m25.72 14.515 8.975-8.975" stroke="#fff" stroke-width="2"/><path d="m14.609 14.515-8.975-8.975" stroke="#fff" stroke-width="2"/></g></svg>