<svg xmlns="http://www.w3.org/2000/svg" width="40.534" height="30.876"><g data-name="Group 227" transform="translate(0 -61)"><path data-name="Path 506" d="M38.159 84.955v-3.767a17.561 17.561 0 0 0-3.646-10.747 18.154 18.154 0 0 0-8.313-6.052A3.567 3.567 0 0 0 22.642 61h-4.75a3.567 3.567 0 0 0-3.558 3.389 18.154 18.154 0 0 0-8.313 6.052 17.561 17.561 0 0 0-3.646 10.747v3.767a3.562 3.562 0 0 0 1.188 6.921h33.409a3.562 3.562 0 0 0 1.188-6.921zM4.75 81.188a15.457 15.457 0 0 1 4.829-11.151v4.026a1.188 1.188 0 0 0 2.375 0v-5.889a15.447 15.447 0 0 1 2.375-1.241v9.505a1.188 1.188 0 1 0 2.375 0V65.27v-.71a1.189 1.189 0 0 1 1.188-1.188h4.75a1.189 1.189 0 0 1 1.188 1.188v11.878a1.188 1.188 0 1 0 2.375 0v-9.505a15.461 15.461 0 0 1 2.375 1.241v5.889a1.188 1.188 0 0 0 2.375 0v-4.026a15.456 15.456 0 0 1 4.829 11.151v3.563H4.75zM36.972 89.5H3.563a1.188 1.188 0 1 1 0-2.375h33.409a1.188 1.188 0 1 1 0 2.375z" fill="#fff"/></g></svg>