<svg xmlns="http://www.w3.org/2000/svg" width="37.808" height="26.831"><g transform="translate(-1 -11.976)" fill="#fff"><path data-name="Path 519" d="M36.978 11.976H29.66a1.832 1.832 0 0 0-1.829 1.829v4.878a1.832 1.832 0 0 0 1.829 1.829h7.318a1.832 1.832 0 0 0 1.829-1.829v-4.878a1.832 1.832 0 0 0-1.829-1.829zm.61 6.708a.61.61 0 0 1-.61.61H29.66a.61.61 0 0 1-.61-.61v-4.879a.61.61 0 0 1 .61-.61h7.318a.61.61 0 0 1 .61.61z"/><path data-name="Path 520" d="M23.563 11.976h-7.318a1.832 1.832 0 0 0-1.829 1.829v4.429a4.717 4.717 0 0 0-2.439 0v-4.429a1.832 1.832 0 0 0-1.83-1.829H2.829A1.832 1.832 0 0 0 1 13.805v4.878a1.832 1.832 0 0 0 1.829 1.829h6.148a4.854 4.854 0 0 0 1.06 6.15 5.493 5.493 0 0 0-4.769 5.436v6.708h14.026v-8.617l.08-.012a4.9 4.9 0 0 0 4.188-4.83v-4.834a1.832 1.832 0 0 0 1.829-1.829v-4.879a1.832 1.832 0 0 0-1.828-1.829zm-7 9.537l-2.143-1.071-.273.137a11 11 0 0 1-4.387 1.14 3.655 3.655 0 0 1 6.8-.206zm1.516 1.44a4.842 4.842 0 0 0-.66-2.439h1.879v3.945a1.833 1.833 0 0 1-1.6 1.815l-1.053.132a4.865 4.865 0 0 0 1.429-3.454zM2.22 18.684v-4.879a.61.61 0 0 1 .61-.61h7.318a.61.61 0 0 1 .61.61v4.928a4.888 4.888 0 0 0-.777.56H2.829a.61.61 0 0 1-.609-.609zm7.318 4.269v-.008a12.22 12.22 0 0 0 4.874-1.142l2.44 1.22a3.657 3.657 0 0 1-7.314-.07zm12.806 2.4A3.676 3.676 0 0 1 19.2 28.97l-1.128.162v8.456H9.537V30.27H8.318v7.318h-1.83v-5.489a4.274 4.274 0 0 1 4.269-4.269h4.269l2.817-.348a3.053 3.053 0 0 0 2.671-3.025v-6.688a.915.915 0 0 1 1.829 0zm1.829-6.665a.61.61 0 0 1-.61.61v-1.529a2.135 2.135 0 0 0-4.269 0v1.525h-2.882a4.9 4.9 0 0 0-.777-.56v-4.929a.61.61 0 0 1 .61-.61h7.318a.61.61 0 0 1 .61.61z"/><path data-name="Path 521" d="M3.439 14.416h6.1v1.22h-6.1z"/><path data-name="Path 522" d="M8.318 16.855h1.22v1.22h-1.22z"/><path data-name="Path 523" d="M3.439 16.855h3.659v1.22H3.439z"/><path data-name="Path 524" d="M33.319 14.416a1.829 1.829 0 1 0 1.829 1.829 1.832 1.832 0 0 0-1.829-1.829zm0 2.439a.61.61 0 1 1 .61-.61.61.61 0 0 1-.61.61z"/></g></svg>