<svg id="package-3" xmlns="http://www.w3.org/2000/svg" width="44.764" height="43.395" viewBox="0 0 44.764 43.395">
  <path id="Path_384" data-name="Path 384" d="M60.868,29.32V26.34a.874.874,0,0,0-1.749,0V28.8L43.9,37.157V20.522l15.215-8.355v7.527a.874.874,0,0,0,1.749,0v-9a.875.875,0,0,0-.454-.766L43.45.609a.875.875,0,0,0-.842,0L25.645,9.924a.875.875,0,0,0-.454.766V17.3a.874.874,0,0,0,1.749,0V12.168l4.638,2.547V20.1a.875.875,0,0,0,.449.764l4.19,2.335a.875.875,0,0,0,1.3-.764V17.976l4.638,2.547V37.157L26.94,28.8V24.183a.874.874,0,0,0-1.749,0V29.32a.875.875,0,0,0,.454.766L42.608,39.4a.875.875,0,0,0,.842,0l16.964-9.315A.875.875,0,0,0,60.868,29.32Zm-11.2-23.3,2.111,1.191L36.672,15.516l-1.71-.939-.712-.4L49.38,5.86Zm3.957,2.172,4.549,2.5L43.03,19.007l-4.541-2.494ZM43.03,2.373l4.534,2.49-15.14,8.321L27.883,10.69Zm-9.7,17.209V15.675l.783.43,1.658.935v3.9Zm0,0" transform="translate(-22.989 -0.501)" fill="#fff"/>
  <path id="Path_385" data-name="Path 385" d="M414.129,247.043a.874.874,0,1,0,.618.256A.88.88,0,0,0,414.129,247.043Zm0,0" transform="translate(-377.124 -225.488)" fill="#fff"/>
  <path id="Path_386" data-name="Path 386" d="M26.688,223.031a.874.874,0,1,0-.618.256A.881.881,0,0,0,26.688,223.031Zm0,0" transform="translate(-22.992 -202.214)" fill="#fff"/>
  <path id="Path_387" data-name="Path 387" d="M465.236,132.855V119.4a.874.874,0,0,0,1.047-1.38l-1.3-1.3a.875.875,0,0,0-1.237,0l-1.3,1.3a.874.874,0,0,0,1.047,1.38v13.452a.874.874,0,0,0-1.047,1.379l1.3,1.3a.874.874,0,0,0,1.237,0l1.3-1.3a.874.874,0,0,0-1.047-1.379Zm0,0" transform="translate(-421.776 -106.325)" fill="#fff"/>
  <path id="Path_388" data-name="Path 388" d="M269.324,362.169l-1.75-.578a.874.874,0,0,0-.688,1.6L254.123,370.2a.875.875,0,0,0-1.712-.247l-.532,1.765a.874.874,0,0,0,.585,1.089l1.764.532a.874.874,0,0,0,.7-1.587l12.671-6.958a.874.874,0,0,0,1.7.229l.578-1.75a.874.874,0,0,0-.556-1.1Zm0,0" transform="translate(-229.823 -329.981)" fill="#fff"/>
  <path id="Path_389" data-name="Path 389" d="M17.512,369.953a.874.874,0,0,0-1.712.247L3.038,363.192a.874.874,0,0,0-.688-1.6L.6,362.17l-.012.006a.871.871,0,0,0-.545,1.095v0l.578,1.75a.874.874,0,0,0,1.7-.229l12.671,6.958a.874.874,0,0,0,.7,1.587l1.739-.525h0l.023-.007.005,0a.871.871,0,0,0,.578-1.093Zm0,0" transform="translate(0.001 -329.983)" fill="#fff"/>
</svg>
